<svg width="335" height="185" viewBox="0 0 335 185" fill="none" xmlns="http://www.w3.org/2000/svg">
<rect width="335" height="185" rx="20" fill="url(#paint0_linear_8_754)"/>
<g filter="url(#filter0_b_8_754)">
<rect width="335" height="185" rx="20" fill="white" fill-opacity="0.03"/>
</g>
<path fill-rule="evenodd" clip-rule="evenodd" d="M44.9798 -3.05176e-05L20 -3.05176e-05C8.95431 -3.05176e-05 0 8.95427 0 20V165C0 176.046 8.95431 185 20 185H315C325.026 185 333.329 177.622 334.777 167.999C333.04 115.464 282.418 42.4786 44.9798 -3.05176e-05Z" fill="white" fill-opacity="0.06"/>
<path d="M26.8 153.848L25.888 153.176L27.872 150.456L24.688 149.4L25.024 148.344L28.208 149.368V145.912H29.392V149.368L32.576 148.344L32.912 149.4L29.728 150.456L31.712 153.176L30.8 153.848L28.8 151.096L26.8 153.848ZM36.3938 153.848L35.4818 153.176L37.4658 150.456L34.2818 149.4L34.6178 148.344L37.8018 149.368V145.912H38.9858V149.368L42.1698 148.344L42.5058 149.4L39.3218 150.456L41.3058 153.176L40.3938 153.848L38.3938 151.096L36.3938 153.848ZM45.9875 153.848L45.0755 153.176L47.0595 150.456L43.8755 149.4L44.2115 148.344L47.3955 149.368V145.912H48.5795V149.368L51.7635 148.344L52.0995 149.4L48.9155 150.456L50.8995 153.176L49.9875 153.848L47.9875 151.096L45.9875 153.848ZM55.5813 153.848L54.6693 153.176L56.6533 150.456L53.4693 149.4L53.8053 148.344L56.9893 149.368V145.912H58.1733V149.368L61.3573 148.344L61.6933 149.4L58.5093 150.456L60.4933 153.176L59.5813 153.848L57.5813 151.096L55.5813 153.848ZM74.7688 153.848L73.8568 153.176L75.8408 150.456L72.6568 149.4L72.9928 148.344L76.1768 149.368V145.912H77.3608V149.368L80.5448 148.344L80.8808 149.4L77.6968 150.456L79.6808 153.176L78.7688 153.848L76.7688 151.096L74.7688 153.848ZM84.3625 153.848L83.4505 153.176L85.4345 150.456L82.2505 149.4L82.5865 148.344L85.7705 149.368V145.912H86.9545V149.368L90.1385 148.344L90.4745 149.4L87.2905 150.456L89.2745 153.176L88.3625 153.848L86.3625 151.096L84.3625 153.848ZM93.9563 153.848L93.0443 153.176L95.0283 150.456L91.8443 149.4L92.1803 148.344L95.3643 149.368V145.912H96.5483V149.368L99.7323 148.344L100.068 149.4L96.8843 150.456L98.8683 153.176L97.9563 153.848L95.9563 151.096L93.9563 153.848ZM103.55 153.848L102.638 153.176L104.622 150.456L101.438 149.4L101.774 148.344L104.958 149.368V145.912H106.142V149.368L109.326 148.344L109.662 149.4L106.478 150.456L108.462 153.176L107.55 153.848L105.55 151.096L103.55 153.848ZM122.738 153.848L121.826 153.176L123.81 150.456L120.626 149.4L120.962 148.344L124.146 149.368V145.912H125.33V149.368L128.514 148.344L128.85 149.4L125.666 150.456L127.65 153.176L126.738 153.848L124.738 151.096L122.738 153.848ZM132.331 153.848L131.419 153.176L133.403 150.456L130.219 149.4L130.555 148.344L133.739 149.368V145.912H134.923V149.368L138.107 148.344L138.443 149.4L135.259 150.456L137.243 153.176L136.331 153.848L134.331 151.096L132.331 153.848ZM141.925 153.848L141.013 153.176L142.997 150.456L139.813 149.4L140.149 148.344L143.333 149.368V145.912H144.517V149.368L147.701 148.344L148.037 149.4L144.853 150.456L146.837 153.176L145.925 153.848L143.925 151.096L141.925 153.848ZM151.519 153.848L150.607 153.176L152.591 150.456L149.407 149.4L149.743 148.344L152.927 149.368V145.912H154.111V149.368L157.295 148.344L157.631 149.4L154.447 150.456L156.431 153.176L155.519 153.848L153.519 151.096L151.519 153.848ZM170.706 153.848L169.794 153.176L171.778 150.456L168.594 149.4L168.93 148.344L172.114 149.368V145.912H173.298V149.368L176.482 148.344L176.818 149.4L173.634 150.456L175.618 153.176L174.706 153.848L172.706 151.096L170.706 153.848ZM180.3 153.848L179.388 153.176L181.372 150.456L178.188 149.4L178.524 148.344L181.708 149.368V145.912H182.892V149.368L186.076 148.344L186.412 149.4L183.228 150.456L185.212 153.176L184.3 153.848L182.3 151.096L180.3 153.848ZM189.894 153.848L188.982 153.176L190.966 150.456L187.782 149.4L188.118 148.344L191.302 149.368V145.912H192.486V149.368L195.67 148.344L196.006 149.4L192.822 150.456L194.806 153.176L193.894 153.848L191.894 151.096L189.894 153.848ZM199.488 153.848L198.576 153.176L200.56 150.456L197.376 149.4L197.712 148.344L200.896 149.368V145.912H202.08V149.368L205.264 148.344L205.6 149.4L202.416 150.456L204.4 153.176L203.488 153.848L201.488 151.096L199.488 153.848Z" fill="white"/>
<path d="M27.888 131L24.576 119.832H26L27.584 125.416L28.784 129.64H28.864L30.064 125.416L31.648 119.832H33.024L29.712 131H27.888ZM38.9058 120.92C38.5324 120.92 38.2711 120.845 38.1218 120.696C37.9724 120.536 37.8978 120.339 37.8978 120.104V119.848C37.8978 119.613 37.9724 119.421 38.1218 119.272C38.2711 119.112 38.5324 119.032 38.9058 119.032C39.2791 119.032 39.5404 119.112 39.6898 119.272C39.8391 119.421 39.9138 119.613 39.9138 119.848V120.104C39.9138 120.339 39.8391 120.536 39.6898 120.696C39.5404 120.845 39.2791 120.92 38.9058 120.92ZM35.2898 129.912H38.2658V123.832H35.2898V122.744H39.5458V129.912H42.3298V131H35.2898V129.912ZM44.4195 129.912H46.8355V123.832H44.4195V122.744H48.1155V124.824H48.1955C48.3662 124.173 48.6862 123.667 49.1555 123.304C49.6355 122.931 50.2435 122.744 50.9795 122.744H52.1315V124.024H50.5795C49.8435 124.024 49.2462 124.237 48.7875 124.664C48.3395 125.091 48.1155 125.651 48.1155 126.344V129.912H51.3155V131H44.4195V129.912ZM57.9813 131C57.3519 131 56.8879 130.824 56.5893 130.472C56.3013 130.12 56.1573 129.667 56.1573 129.112V123.832H53.4053V122.744H55.4533C55.7306 122.744 55.9226 122.691 56.0293 122.584C56.1466 122.467 56.2053 122.269 56.2053 121.992V119.832H57.4373V122.744H61.1973V123.832H57.4373V129.912H61.1973V131H57.9813ZM69.127 129.656H69.063C68.9777 129.859 68.871 130.056 68.743 130.248C68.615 130.429 68.455 130.589 68.263 130.728C68.0817 130.867 67.863 130.979 67.607 131.064C67.351 131.149 67.0523 131.192 66.711 131.192C65.847 131.192 65.1537 130.92 64.631 130.376C64.1083 129.821 63.847 129.043 63.847 128.04V122.744H65.127V127.816C65.127 128.573 65.2923 129.139 65.623 129.512C65.9537 129.875 66.439 130.056 67.079 130.056C67.335 130.056 67.5857 130.024 67.831 129.96C68.0763 129.896 68.295 129.8 68.487 129.672C68.679 129.544 68.8337 129.384 68.951 129.192C69.0683 128.989 69.127 128.749 69.127 128.472V122.744H70.407V131H69.127V129.656ZM79.8888 131C79.3874 131 79.0301 130.872 78.8168 130.616C78.6034 130.36 78.4701 130.04 78.4168 129.656H78.3368C78.1554 130.136 77.8621 130.515 77.4568 130.792C77.0621 131.059 76.5288 131.192 75.8568 131.192C74.9928 131.192 74.3048 130.968 73.7928 130.52C73.2808 130.072 73.0247 129.459 73.0247 128.68C73.0247 127.912 73.3021 127.32 73.8568 126.904C74.4221 126.488 75.3288 126.28 76.5768 126.28H78.3368V125.464C78.3368 124.856 78.1661 124.403 77.8248 124.104C77.4834 123.795 76.9981 123.64 76.3688 123.64C75.8141 123.64 75.3608 123.752 75.0088 123.976C74.6568 124.189 74.3741 124.483 74.1608 124.856L73.2968 124.216C73.4034 124.003 73.5474 123.795 73.7288 123.592C73.9101 123.389 74.1341 123.213 74.4008 123.064C74.6674 122.904 74.9714 122.781 75.3128 122.696C75.6541 122.6 76.0328 122.552 76.4488 122.552C77.4194 122.552 78.1874 122.797 78.7528 123.288C79.3288 123.779 79.6168 124.461 79.6168 125.336V129.88H80.7688V131H79.8888ZM76.0807 130.12C76.4114 130.12 76.7101 130.083 76.9768 130.008C77.2541 129.923 77.4941 129.816 77.6968 129.688C77.8994 129.549 78.0541 129.389 78.1608 129.208C78.2781 129.016 78.3368 128.813 78.3368 128.6V127.24H76.5768C75.8088 127.24 75.2488 127.347 74.8968 127.56C74.5448 127.773 74.3688 128.083 74.3688 128.488V128.824C74.3688 129.251 74.5181 129.576 74.8168 129.8C75.1261 130.013 75.5474 130.12 76.0807 130.12ZM82.8425 129.912H85.7225V120.248H82.8425V119.16H87.0025V129.912H89.8825V131H82.8425V129.912ZM105.918 131.192C104.553 131.192 103.534 130.696 102.862 129.704C102.201 128.712 101.87 127.283 101.87 125.416C101.87 123.549 102.201 122.12 102.862 121.128C103.534 120.136 104.553 119.64 105.918 119.64C106.43 119.64 106.873 119.709 107.246 119.848C107.619 119.987 107.939 120.173 108.206 120.408C108.473 120.643 108.697 120.909 108.878 121.208C109.059 121.496 109.219 121.789 109.358 122.088L108.206 122.616C108.11 122.371 107.998 122.141 107.87 121.928C107.742 121.704 107.587 121.512 107.406 121.352C107.235 121.181 107.027 121.048 106.782 120.952C106.547 120.856 106.259 120.808 105.918 120.808C105.033 120.808 104.371 121.144 103.934 121.816C103.507 122.488 103.294 123.384 103.294 124.504V126.328C103.294 127.448 103.507 128.344 103.934 129.016C104.371 129.688 105.033 130.024 105.918 130.024C106.259 130.024 106.547 129.976 106.782 129.88C107.027 129.784 107.235 129.656 107.406 129.496C107.587 129.325 107.742 129.133 107.87 128.92C107.998 128.696 108.11 128.461 108.206 128.216L109.358 128.744C109.219 129.053 109.059 129.352 108.878 129.64C108.697 129.928 108.473 130.189 108.206 130.424C107.939 130.659 107.619 130.845 107.246 130.984C106.873 131.123 106.43 131.192 105.918 131.192ZM118.264 131C117.762 131 117.405 130.872 117.192 130.616C116.978 130.36 116.845 130.04 116.792 129.656H116.712C116.53 130.136 116.237 130.515 115.832 130.792C115.437 131.059 114.904 131.192 114.232 131.192C113.368 131.192 112.68 130.968 112.168 130.52C111.656 130.072 111.4 129.459 111.4 128.68C111.4 127.912 111.677 127.32 112.232 126.904C112.797 126.488 113.704 126.28 114.952 126.28H116.712V125.464C116.712 124.856 116.541 124.403 116.2 124.104C115.858 123.795 115.373 123.64 114.744 123.64C114.189 123.64 113.736 123.752 113.384 123.976C113.032 124.189 112.749 124.483 112.536 124.856L111.672 124.216C111.778 124.003 111.922 123.795 112.104 123.592C112.285 123.389 112.509 123.213 112.776 123.064C113.042 122.904 113.346 122.781 113.688 122.696C114.029 122.6 114.408 122.552 114.824 122.552C115.794 122.552 116.562 122.797 117.128 123.288C117.704 123.779 117.992 124.461 117.992 125.336V129.88H119.144V131H118.264ZM114.456 130.12C114.786 130.12 115.085 130.083 115.352 130.008C115.629 129.923 115.869 129.816 116.072 129.688C116.274 129.549 116.429 129.389 116.536 129.208C116.653 129.016 116.712 128.813 116.712 128.6V127.24H114.952C114.184 127.24 113.624 127.347 113.272 127.56C112.92 127.773 112.744 128.083 112.744 128.488V128.824C112.744 129.251 112.893 129.576 113.192 129.8C113.501 130.013 113.922 130.12 114.456 130.12ZM121.17 129.912H123.586V123.832H121.17V122.744H124.866V124.824H124.946C125.116 124.173 125.436 123.667 125.906 123.304C126.386 122.931 126.994 122.744 127.73 122.744H128.882V124.024H127.33C126.594 124.024 125.996 124.237 125.538 124.664C125.09 125.091 124.866 125.651 124.866 126.344V129.912H128.066V131H121.17V129.912ZM136.331 129.656H136.267C135.734 130.68 134.886 131.192 133.723 131.192C132.71 131.192 131.915 130.813 131.339 130.056C130.774 129.299 130.491 128.237 130.491 126.872C130.491 125.507 130.774 124.445 131.339 123.688C131.915 122.931 132.71 122.552 133.723 122.552C134.886 122.552 135.734 123.064 136.267 124.088H136.331V119.16H137.611V131H136.331V129.656ZM134.219 130.056C134.507 130.056 134.779 130.019 135.035 129.944C135.291 129.869 135.515 129.763 135.707 129.624C135.899 129.475 136.049 129.299 136.155 129.096C136.273 128.883 136.331 128.637 136.331 128.36V125.384C136.331 125.107 136.273 124.867 136.155 124.664C136.049 124.451 135.899 124.275 135.707 124.136C135.515 123.987 135.291 123.875 135.035 123.8C134.779 123.725 134.507 123.688 134.219 123.688C133.473 123.688 132.891 123.917 132.475 124.376C132.07 124.824 131.867 125.421 131.867 126.168V127.576C131.867 128.323 132.07 128.925 132.475 129.384C132.891 129.832 133.473 130.056 134.219 130.056Z" fill="white"/>
<path opacity="0.9" d="M30.144 46.24C29.3653 46.24 28.656 46.112 28.016 45.856C27.376 45.6 26.8267 45.2267 26.368 44.736C25.9093 44.2453 25.552 43.6427 25.296 42.928C25.0507 42.2027 24.928 41.376 24.928 40.448C24.928 39.52 25.0667 38.6987 25.344 37.984C25.632 37.2587 26.016 36.6507 26.496 36.16C26.976 35.6693 27.536 35.296 28.176 35.04C28.816 34.784 29.4987 34.656 30.224 34.656C30.6827 34.656 31.0933 34.688 31.456 34.752C31.8293 34.816 32.1493 34.8907 32.416 34.976C32.6933 35.0613 32.9173 35.1467 33.088 35.232C33.2587 35.3173 33.376 35.3813 33.44 35.424L32.992 36.704C32.896 36.64 32.7573 36.5707 32.576 36.496C32.3947 36.4213 32.1867 36.3467 31.952 36.272C31.728 36.1973 31.4773 36.1387 31.2 36.096C30.9333 36.0427 30.6613 36.016 30.384 36.016C29.7973 36.016 29.2693 36.1173 28.8 36.32C28.3307 36.5227 27.9307 36.816 27.6 37.2C27.2693 37.584 27.0133 38.0533 26.832 38.608C26.6613 39.152 26.576 39.7653 26.576 40.448C26.576 41.1093 26.6507 41.712 26.8 42.256C26.96 42.8 27.1947 43.2693 27.504 43.664C27.8133 44.048 28.1973 44.3467 28.656 44.56C29.1253 44.7733 29.6693 44.88 30.288 44.88C31.0027 44.88 31.5947 44.8053 32.064 44.656C32.5333 44.5067 32.8853 44.3733 33.12 44.256L33.52 45.536C33.4453 45.5893 33.312 45.6587 33.12 45.744C32.928 45.8187 32.688 45.8933 32.4 45.968C32.112 46.0427 31.776 46.1067 31.392 46.16C31.008 46.2133 30.592 46.24 30.144 46.24ZM42.9715 34.912V36.256H39.4835V46H37.9315V36.256H34.4435V34.912H42.9715ZM44.6104 46V34.912H51.2984V36.24H46.1624V39.584H50.7224V40.896H46.1624V46H44.6104ZM59.8993 46.096C59.6753 46.096 59.4299 46.0907 59.1633 46.08C58.9073 46.0693 58.6459 46.0533 58.3793 46.032C58.1233 46.0107 57.8673 45.984 57.6113 45.952C57.3553 45.92 57.1206 45.8773 56.9073 45.824V35.072C57.1206 35.0187 57.3553 34.976 57.6113 34.944C57.8673 34.912 58.1233 34.8853 58.3793 34.864C58.6459 34.8427 58.9073 34.8267 59.1633 34.816C59.4193 34.8053 59.6593 34.8 59.8833 34.8C60.5233 34.8 61.1206 34.848 61.6753 34.944C62.2406 35.04 62.7259 35.2053 63.1313 35.44C63.5473 35.664 63.8726 35.9627 64.1073 36.336C64.3419 36.7093 64.4593 37.168 64.4593 37.712C64.4593 38.32 64.3153 38.8213 64.0273 39.216C63.7393 39.6 63.3553 39.888 62.8753 40.08C63.5259 40.272 64.0433 40.576 64.4273 40.992C64.8113 41.408 65.0033 41.9947 65.0033 42.752C65.0033 43.8613 64.5926 44.6987 63.7713 45.264C62.9606 45.8187 61.6699 46.096 59.8993 46.096ZM58.4433 40.832V44.736C58.5606 44.7467 58.6993 44.7573 58.8593 44.768C58.9979 44.7787 59.1579 44.7893 59.3393 44.8C59.5313 44.8 59.7499 44.8 59.9953 44.8C60.4539 44.8 60.8859 44.7733 61.2913 44.72C61.7073 44.656 62.0699 44.5493 62.3793 44.4C62.6886 44.2507 62.9339 44.0427 63.1153 43.776C63.3073 43.5093 63.4033 43.1733 63.4033 42.768C63.4033 42.4053 63.3339 42.1013 63.1953 41.856C63.0566 41.6 62.8539 41.3973 62.5873 41.248C62.3313 41.0987 62.0219 40.992 61.6593 40.928C61.2966 40.864 60.8913 40.832 60.4433 40.832H58.4433ZM58.4433 39.584H60.0753C60.4593 39.584 60.8219 39.5573 61.1633 39.504C61.5046 39.4507 61.7979 39.3547 62.0433 39.216C62.2993 39.0773 62.4966 38.896 62.6353 38.672C62.7846 38.448 62.8593 38.1653 62.8593 37.824C62.8593 37.504 62.7846 37.2373 62.6353 37.024C62.4859 36.8 62.2779 36.624 62.0113 36.496C61.7553 36.3573 61.4513 36.256 61.0993 36.192C60.7473 36.128 60.3739 36.096 59.9793 36.096C59.5846 36.096 59.2753 36.1013 59.0513 36.112C58.8273 36.1227 58.6246 36.1387 58.4433 36.16V39.584ZM69.9085 44.928C70.2605 44.928 70.5698 44.9227 70.8365 44.912C71.1138 44.8907 71.3432 44.8587 71.5245 44.816V42.336C71.4178 42.2827 71.2418 42.24 70.9965 42.208C70.7618 42.1653 70.4738 42.144 70.1325 42.144C69.9085 42.144 69.6685 42.16 69.4125 42.192C69.1672 42.224 68.9378 42.2933 68.7245 42.4C68.5218 42.496 68.3512 42.6347 68.2125 42.816C68.0738 42.9867 68.0045 43.216 68.0045 43.504C68.0045 44.0373 68.1752 44.4107 68.5165 44.624C68.8578 44.8267 69.3218 44.928 69.9085 44.928ZM69.7805 37.472C70.3778 37.472 70.8792 37.552 71.2845 37.712C71.7005 37.8613 72.0312 38.08 72.2765 38.368C72.5325 38.6453 72.7138 38.9813 72.8205 39.376C72.9272 39.76 72.9805 40.1867 72.9805 40.656V45.856C72.8525 45.8773 72.6712 45.9093 72.4365 45.952C72.2125 45.984 71.9565 46.016 71.6685 46.048C71.3805 46.08 71.0658 46.1067 70.7245 46.128C70.3938 46.16 70.0632 46.176 69.7325 46.176C69.2632 46.176 68.8312 46.128 68.4365 46.032C68.0418 45.936 67.7005 45.7867 67.4125 45.584C67.1245 45.3707 66.9005 45.0933 66.7405 44.752C66.5805 44.4107 66.5005 44 66.5005 43.52C66.5005 43.0613 66.5912 42.6667 66.7725 42.336C66.9645 42.0053 67.2205 41.7387 67.5405 41.536C67.8605 41.3333 68.2338 41.184 68.6605 41.088C69.0872 40.992 69.5352 40.944 70.0045 40.944C70.1538 40.944 70.3085 40.9547 70.4685 40.976C70.6285 40.9867 70.7778 41.008 70.9165 41.04C71.0658 41.0613 71.1938 41.0827 71.3005 41.104C71.4072 41.1253 71.4818 41.1413 71.5245 41.152V40.736C71.5245 40.4907 71.4978 40.2507 71.4445 40.016C71.3912 39.7707 71.2952 39.5573 71.1565 39.376C71.0178 39.184 70.8258 39.0347 70.5805 38.928C70.3458 38.8107 70.0365 38.752 69.6525 38.752C69.1618 38.752 68.7298 38.7893 68.3565 38.864C67.9938 38.928 67.7218 38.9973 67.5405 39.072L67.3645 37.84C67.5565 37.7547 67.8765 37.6747 68.3245 37.6C68.7725 37.5147 69.2578 37.472 69.7805 37.472ZM75.4519 37.92C75.7932 37.8347 76.2465 37.744 76.8119 37.648C77.3772 37.552 78.0279 37.504 78.7639 37.504C79.4252 37.504 79.9745 37.6 80.4119 37.792C80.8492 37.9733 81.1959 38.2347 81.4519 38.576C81.7185 38.9067 81.9052 39.3067 82.0119 39.776C82.1185 40.2453 82.1719 40.7627 82.1719 41.328V46H80.6839V41.648C80.6839 41.136 80.6465 40.6987 80.5719 40.336C80.5079 39.9733 80.3959 39.68 80.2359 39.456C80.0759 39.232 79.8625 39.072 79.5959 38.976C79.3292 38.8693 78.9985 38.816 78.6039 38.816C78.4439 38.816 78.2785 38.8213 78.1079 38.832C77.9372 38.8427 77.7719 38.8587 77.6119 38.88C77.4625 38.8907 77.3239 38.9067 77.1959 38.928C77.0785 38.9493 76.9932 38.9653 76.9399 38.976V46H75.4519V37.92ZM87.6474 41.424C87.9674 41.6693 88.3034 41.9733 88.6554 42.336C89.018 42.6987 89.37 43.0933 89.7114 43.52C90.0634 43.936 90.394 44.3627 90.7034 44.8C91.0127 45.2267 91.274 45.6267 91.4874 46H89.7434C89.5194 45.6267 89.258 45.248 88.9594 44.864C88.6714 44.4693 88.3674 44.096 88.0474 43.744C87.7274 43.3813 87.402 43.0507 87.0714 42.752C86.7407 42.4533 86.426 42.2027 86.1274 42V46H84.6394V33.84L86.1274 33.584V41.168C86.3834 40.912 86.666 40.6293 86.9754 40.32C87.2847 40.0107 87.5887 39.696 87.8874 39.376C88.186 39.056 88.4687 38.752 88.7354 38.464C89.002 38.1653 89.2314 37.904 89.4234 37.68H91.1674C90.922 37.9467 90.6554 38.24 90.3674 38.56C90.0794 38.88 89.7807 39.2053 89.4714 39.536C89.162 39.856 88.8474 40.1813 88.5274 40.512C88.218 40.832 87.9247 41.136 87.6474 41.424Z" fill="white"/>
<path d="M281.224 28.524L274.94 43.516H270.84L267.748 31.55C267.56 30.814 267.398 30.544 266.826 30.234C265.894 29.728 264.354 29.254 263 28.958L263.092 28.524H269.692C270.123 28.5236 270.541 28.6773 270.868 28.9575C271.196 29.2377 271.413 29.6259 271.48 30.052L273.114 38.728L277.15 28.524H281.224ZM297.29 38.622C297.306 34.664 291.818 34.446 291.856 32.678C291.868 32.14 292.38 31.568 293.5 31.422C294.813 31.2974 296.134 31.5295 297.326 32.094L298.006 28.914C296.846 28.4779 295.617 28.2524 294.378 28.248C290.544 28.248 287.846 30.288 287.822 33.206C287.798 35.364 289.748 36.566 291.218 37.286C292.73 38.02 293.238 38.492 293.23 39.148C293.22 40.156 292.026 40.598 290.91 40.616C288.96 40.646 287.83 40.09 286.926 39.67L286.224 42.954C287.13 43.37 288.802 43.734 290.536 43.75C294.61 43.75 297.276 41.738 297.29 38.622ZM307.412 43.516H311L307.87 28.524H304.558C304.204 28.5207 303.857 28.6239 303.563 28.82C303.268 29.0161 303.039 29.2962 302.906 29.624L297.088 43.516H301.16L301.97 41.276H306.946L307.412 43.516ZM303.086 38.204L305.126 32.574L306.302 38.204H303.086ZM286.766 28.524L283.56 43.516H279.68L282.89 28.524H286.766Z" fill="white"/>
<defs>
<filter id="filter0_b_8_754" x="-80" y="-80" width="495" height="345" filterUnits="userSpaceOnUse" color-interpolation-filters="sRGB">
<feFlood flood-opacity="0" result="BackgroundImageFix"/>
<feGaussianBlur in="BackgroundImageFix" stdDeviation="40"/>
<feComposite in2="SourceAlpha" operator="in" result="effect1_backgroundBlur_8_754"/>
<feBlend mode="normal" in="SourceGraphic" in2="effect1_backgroundBlur_8_754" result="shape"/>
</filter>
<linearGradient id="paint0_linear_8_754" x1="-48" y1="-20" x2="382" y2="205.5" gradientUnits="userSpaceOnUse">
<stop offset="0.119355" stop-color="#282828"/>
<stop offset="0.843296" stop-color="#0B0B0B"/>
</linearGradient>
</defs>
</svg>
