<svg width="1191" height="1100" viewBox="0 0 1191 1100" fill="none" xmlns="http://www.w3.org/2000/svg">
<g filter="url(#filter0_f_5_3)">
<circle cx="641" cy="550" r="350" fill="#1B4CD1" fill-opacity="0.5"/>
</g>
<mask id="mask0_5_3" style="mask-type:alpha" maskUnits="userSpaceOnUse" x="516" y="549" width="642" height="322">
<rect width="640" height="320" rx="16" transform="matrix(-1 0 0 1 1157 550)" fill="url(#paint0_linear_5_3)" fill-opacity="1" stroke="#EEEEEE"/>
</mask>
<g mask="url(#mask0_5_3)">
<g filter="url(#filter1_b_5_3)">
<rect width="640" height="320" rx="16" transform="matrix(-1 0 0 1 1157 550)" fill="url(#paint1_linear_5_3)"/>
</g>
<rect x="517" y="546" width="8" height="327" fill="#1B4CD1"/>
<path d="M1067.8 728.68V732.68C1070.01 732.68 1071.8 730.889 1071.8 728.68H1067.8ZM1067.8 707.56H1071.8C1071.8 705.351 1070.01 703.56 1067.8 703.56V707.56ZM1009.96 686.915C1008.1 688.11 1007.56 690.585 1008.76 692.443C1009.95 694.301 1012.42 694.839 1014.28 693.645L1009.96 686.915ZM1039 673L1042.16 670.544C1040.89 668.91 1038.58 668.516 1036.84 669.635L1039 673ZM1049.28 692.736C1050.64 694.48 1053.15 694.794 1054.9 693.437C1056.64 692.081 1056.95 689.568 1055.6 687.824L1049.28 692.736ZM1067.8 724.68H1055.32V732.68H1067.8V724.68ZM1055.32 711.56H1067.8V703.56H1055.32V711.56ZM1063.8 707.56V728.68H1071.8V707.56H1063.8ZM1048.76 718.12C1048.76 714.497 1051.7 711.56 1055.32 711.56V703.56C1047.28 703.56 1040.76 710.079 1040.76 718.12H1048.76ZM1055.32 724.68C1051.7 724.68 1048.76 721.743 1048.76 718.12H1040.76C1040.76 726.161 1047.28 732.68 1055.32 732.68V724.68ZM1014.28 693.645L1041.16 676.365L1036.84 669.635L1009.96 686.915L1014.28 693.645ZM1035.84 675.456L1049.28 692.736L1055.6 687.824L1042.16 670.544L1035.84 675.456ZM994.84 694.28H1060.12V686.28H994.84V694.28ZM1060.12 743.88H994.84V751.88H1060.12V743.88ZM995 744.04V694.12H987V744.04H995ZM994.84 743.88C994.928 743.88 995 743.952 995 744.04H987C987 748.37 990.51 751.88 994.84 751.88V743.88ZM1059.96 744.04C1059.96 743.952 1060.03 743.88 1060.12 743.88V751.88C1064.45 751.88 1067.96 748.37 1067.96 744.04H1059.96ZM1060.12 694.28C1060.03 694.28 1059.96 694.208 1059.96 694.12H1067.96C1067.96 689.79 1064.45 686.28 1060.12 686.28V694.28ZM994.84 686.28C990.51 686.28 987 689.79 987 694.12H995C995 694.208 994.928 694.28 994.84 694.28V686.28ZM1059.96 731.56V744.04H1067.96V731.56H1059.96ZM1059.96 694.12V704.2H1067.96V694.12H1059.96Z" fill="#1B4CD1"/>
<path d="M565.05 797L572.358 776.756H575.662L582.956 797H579.932L578.028 791.694H570.034L568.088 797H565.05ZM570.748 788.978H577.258L574.024 779.696L570.748 788.978ZM595.998 782.524L590.734 797H588.2L582.922 782.524H585.694L589.362 793.206H589.558L593.226 782.524H595.998ZM602.137 797.28C601.204 797.28 600.373 797.112 599.645 796.776C598.926 796.44 598.362 795.955 597.951 795.32C597.54 794.685 597.335 793.92 597.335 793.024C597.335 791.419 597.904 790.219 599.043 789.426C600.182 788.633 601.997 788.213 604.489 788.166L606.869 788.096V787.046C606.869 786.215 606.622 785.562 606.127 785.086C605.632 784.61 604.872 784.377 603.845 784.386C603.07 784.386 602.38 784.563 601.773 784.918C601.176 785.273 600.784 785.856 600.597 786.668H597.993C598.049 785.707 598.324 784.899 598.819 784.246C599.323 783.583 600.014 783.084 600.891 782.748C601.768 782.412 602.8 782.244 603.985 782.244C605.301 782.244 606.384 782.426 607.233 782.79C608.082 783.145 608.712 783.667 609.123 784.358C609.543 785.049 609.753 785.889 609.753 786.878V797H607.219L606.981 794.34C606.44 795.451 605.754 796.221 604.923 796.65C604.102 797.07 603.173 797.28 602.137 797.28ZM603.075 795.194C603.532 795.194 603.985 795.115 604.433 794.956C604.881 794.788 605.287 794.564 605.651 794.284C606.015 793.995 606.304 793.673 606.519 793.318C606.743 792.963 606.86 792.599 606.869 792.226V789.832L604.909 789.874C603.91 789.883 603.061 789.986 602.361 790.182C601.67 790.378 601.138 790.681 600.765 791.092C600.401 791.503 600.219 792.049 600.219 792.73C600.219 793.505 600.49 794.111 601.031 794.55C601.572 794.979 602.254 795.194 603.075 795.194ZM617.128 782.524V797H614.244V782.524H617.128ZM617.184 776.77V779.724H614.174V776.77H617.184ZM625.513 797.196C624.654 797.196 623.963 797.084 623.441 796.86C622.927 796.636 622.535 796.337 622.265 795.964C621.994 795.581 621.812 795.152 621.719 794.676C621.635 794.191 621.593 793.691 621.593 793.178V776.196H624.547V792.87C624.547 793.542 624.677 794.055 624.939 794.41C625.209 794.765 625.62 794.965 626.171 795.012L626.927 795.04V796.944C626.693 797.019 626.451 797.079 626.199 797.126C625.956 797.173 625.727 797.196 625.513 797.196ZM634.047 797.28C633.114 797.28 632.283 797.112 631.555 796.776C630.836 796.44 630.272 795.955 629.861 795.32C629.45 794.685 629.245 793.92 629.245 793.024C629.245 791.419 629.814 790.219 630.953 789.426C632.092 788.633 633.907 788.213 636.399 788.166L638.779 788.096V787.046C638.779 786.215 638.532 785.562 638.037 785.086C637.542 784.61 636.782 784.377 635.755 784.386C634.98 784.386 634.29 784.563 633.683 784.918C633.086 785.273 632.694 785.856 632.507 786.668H629.903C629.959 785.707 630.234 784.899 630.729 784.246C631.233 783.583 631.924 783.084 632.801 782.748C633.678 782.412 634.71 782.244 635.895 782.244C637.211 782.244 638.294 782.426 639.143 782.79C639.992 783.145 640.622 783.667 641.033 784.358C641.453 785.049 641.663 785.889 641.663 786.878V797H639.129L638.891 794.34C638.35 795.451 637.664 796.221 636.833 796.65C636.012 797.07 635.083 797.28 634.047 797.28ZM634.985 795.194C635.442 795.194 635.895 795.115 636.343 794.956C636.791 794.788 637.197 794.564 637.561 794.284C637.925 793.995 638.214 793.673 638.429 793.318C638.653 792.963 638.77 792.599 638.779 792.226V789.832L636.819 789.874C635.82 789.883 634.971 789.986 634.271 790.182C633.58 790.378 633.048 790.681 632.675 791.092C632.311 791.503 632.129 792.049 632.129 792.73C632.129 793.505 632.4 794.111 632.941 794.55C633.482 794.979 634.164 795.194 634.985 795.194ZM653.28 797.28C652.468 797.28 651.777 797.173 651.208 796.958C650.638 796.743 650.167 796.468 649.794 796.132C649.43 795.796 649.14 795.441 648.926 795.068C648.72 794.695 648.562 794.349 648.45 794.032L648.128 797H645.874V776.196H648.898V784.722C649.028 784.47 649.22 784.199 649.472 783.91C649.733 783.621 650.055 783.35 650.438 783.098C650.83 782.846 651.282 782.641 651.796 782.482C652.309 782.323 652.888 782.244 653.532 782.244C655.333 782.244 656.761 782.879 657.816 784.148C658.88 785.417 659.412 787.265 659.412 789.692C659.412 791.223 659.183 792.557 658.726 793.696C658.268 794.825 657.582 795.707 656.668 796.342C655.762 796.967 654.633 797.28 653.28 797.28ZM652.692 795.026C653.793 795.026 654.689 794.597 655.38 793.738C656.08 792.879 656.43 791.498 656.43 789.594C656.43 787.951 656.103 786.696 655.45 785.828C654.806 784.96 653.872 784.526 652.65 784.526C651.772 784.526 651.058 784.722 650.508 785.114C649.957 785.497 649.551 786.066 649.29 786.822C649.038 787.578 648.907 788.502 648.898 789.594C648.898 791.526 649.196 792.917 649.794 793.766C650.391 794.606 651.357 795.026 652.692 795.026ZM666.528 797.196C665.669 797.196 664.979 797.084 664.456 796.86C663.943 796.636 663.551 796.337 663.28 795.964C663.009 795.581 662.827 795.152 662.734 794.676C662.65 794.191 662.608 793.691 662.608 793.178V776.196H665.562V792.87C665.562 793.542 665.693 794.055 665.954 794.41C666.225 794.765 666.635 794.965 667.186 795.012L667.942 795.04V796.944C667.709 797.019 667.466 797.079 667.214 797.126C666.971 797.173 666.743 797.196 666.528 797.196ZM673.189 790.462C673.189 791.33 673.329 792.109 673.609 792.8C673.898 793.481 674.332 794.023 674.911 794.424C675.489 794.816 676.208 795.012 677.067 795.012C677.925 795.012 678.667 794.816 679.293 794.424C679.927 794.032 680.343 793.449 680.539 792.674H683.311C683.143 793.663 682.746 794.503 682.121 795.194C681.505 795.885 680.758 796.407 679.881 796.762C679.003 797.107 678.084 797.28 677.123 797.28C675.751 797.28 674.542 796.986 673.497 796.398C672.451 795.801 671.635 794.951 671.047 793.85C670.468 792.749 670.179 791.437 670.179 789.916C670.179 788.413 670.445 787.088 670.977 785.94C671.509 784.783 672.279 783.877 673.287 783.224C674.295 782.571 675.508 782.244 676.927 782.244C678.327 782.244 679.503 782.543 680.455 783.14C681.416 783.737 682.144 784.577 682.639 785.66C683.133 786.733 683.381 788.003 683.381 789.468V790.462H673.189ZM673.189 788.516H680.525C680.525 787.76 680.394 787.074 680.133 786.458C679.871 785.833 679.47 785.343 678.929 784.988C678.397 784.624 677.725 784.442 676.913 784.442C676.082 784.442 675.391 784.643 674.841 785.044C674.29 785.445 673.875 785.959 673.595 786.584C673.324 787.209 673.189 787.853 673.189 788.516ZM700.61 784.68H697.362L697.376 793.318C697.376 793.794 697.422 794.144 697.516 794.368C697.618 794.583 697.786 794.723 698.02 794.788C698.262 794.844 698.589 794.872 699 794.872H700.694V796.818C700.507 796.893 700.227 796.958 699.854 797.014C699.49 797.07 699.018 797.098 698.44 797.098C697.366 797.098 696.531 796.953 695.934 796.664C695.346 796.375 694.935 795.959 694.702 795.418C694.478 794.867 694.366 794.205 694.366 793.43V784.68H692.014V782.524H694.45L695.192 778.268H697.362V782.51H700.61V784.68ZM709.64 797.28C708.287 797.28 707.102 796.991 706.084 796.412C705.076 795.824 704.292 794.975 703.732 793.864C703.182 792.753 702.906 791.409 702.906 789.832C702.906 788.311 703.168 786.981 703.69 785.842C704.222 784.703 704.992 783.821 706 783.196C707.008 782.561 708.226 782.244 709.654 782.244C711.017 782.244 712.198 782.543 713.196 783.14C714.195 783.728 714.97 784.591 715.52 785.73C716.071 786.859 716.346 788.227 716.346 789.832C716.346 791.297 716.085 792.59 715.562 793.71C715.049 794.83 714.293 795.707 713.294 796.342C712.305 796.967 711.087 797.28 709.64 797.28ZM709.654 794.97C710.476 794.97 711.162 794.755 711.712 794.326C712.272 793.887 712.692 793.276 712.972 792.492C713.252 791.699 713.392 790.784 713.392 789.748C713.392 788.787 713.266 787.914 713.014 787.13C712.772 786.337 712.375 785.707 711.824 785.24C711.274 784.773 710.55 784.54 709.654 784.54C708.814 784.54 708.114 784.755 707.554 785.184C706.994 785.604 706.57 786.206 706.28 786.99C706 787.765 705.86 788.684 705.86 789.748C705.86 790.691 705.986 791.559 706.238 792.352C706.49 793.145 706.896 793.78 707.456 794.256C708.016 794.732 708.749 794.97 709.654 794.97ZM744.859 782.524L740.365 797H737.621L734.485 786.836L731.475 797H728.773L724.237 782.524H726.967L730.131 793.066H730.327L733.421 782.524H735.647L738.839 793.038H739.035L742.087 782.524H744.859ZM750.757 782.524V797H747.873V782.524H750.757ZM750.813 776.77V779.724H747.803V776.77H750.813ZM762.953 784.68H759.705L759.719 793.318C759.719 793.794 759.766 794.144 759.859 794.368C759.962 794.583 760.13 794.723 760.363 794.788C760.606 794.844 760.933 794.872 761.343 794.872H763.037V796.818C762.851 796.893 762.571 796.958 762.197 797.014C761.833 797.07 761.362 797.098 760.783 797.098C759.71 797.098 758.875 796.953 758.277 796.664C757.689 796.375 757.279 795.959 757.045 795.418C756.821 794.867 756.709 794.205 756.709 793.43V784.68H754.357V782.524H756.793L757.535 778.268H759.705V782.51H762.953V784.68ZM766.487 797V776.196H769.441V784.638C769.674 784.255 769.987 783.891 770.379 783.546C770.78 783.201 771.266 782.921 771.835 782.706C772.414 782.482 773.086 782.37 773.851 782.37C774.794 782.37 775.643 782.547 776.399 782.902C777.164 783.247 777.771 783.751 778.219 784.414C778.676 785.067 778.905 785.847 778.905 786.752V797H775.909V787.298C775.909 786.486 775.629 785.861 775.069 785.422C774.509 784.983 773.79 784.764 772.913 784.764C772.325 784.764 771.765 784.867 771.233 785.072C770.71 785.268 770.286 785.567 769.959 785.968C769.642 786.36 769.483 786.855 769.483 787.452V797H766.487ZM788.035 797.28C786.131 797.28 784.633 796.631 783.541 795.334C782.449 794.027 781.903 792.147 781.903 789.692C781.903 788.189 782.122 786.883 782.561 785.772C782.999 784.652 783.653 783.784 784.521 783.168C785.398 782.552 786.481 782.244 787.769 782.244C788.422 782.244 789.001 782.323 789.505 782.482C790.018 782.641 790.466 782.846 790.849 783.098C791.241 783.35 791.563 783.621 791.815 783.91C792.076 784.199 792.277 784.47 792.417 784.722V776.196H795.427V797H793.187L792.851 794.032C792.748 794.349 792.589 794.695 792.375 795.068C792.16 795.441 791.866 795.796 791.493 796.132C791.129 796.468 790.662 796.743 790.093 796.958C789.523 797.173 788.837 797.28 788.035 797.28ZM788.609 795.026C789.953 795.026 790.923 794.606 791.521 793.766C792.118 792.917 792.417 791.526 792.417 789.594C792.407 788.502 792.272 787.578 792.011 786.822C791.749 786.066 791.343 785.497 790.793 785.114C790.251 784.722 789.537 784.526 788.651 784.526C787.54 784.526 786.635 784.927 785.935 785.73C785.235 786.523 784.885 787.811 784.885 789.594C784.885 791.349 785.202 792.693 785.837 793.626C786.481 794.559 787.405 795.026 788.609 795.026ZM799.655 797V782.524H802.525V785.492C802.768 784.783 803.104 784.19 803.533 783.714C803.972 783.229 804.48 782.865 805.059 782.622C805.638 782.37 806.249 782.244 806.893 782.244C807.089 782.244 807.276 782.258 807.453 782.286C807.63 782.305 807.77 782.342 807.873 782.398V785.282C807.752 785.226 807.593 785.189 807.397 785.17C807.21 785.151 807.047 785.137 806.907 785.128C806.272 785.081 805.694 785.114 805.171 785.226C804.648 785.338 804.196 785.525 803.813 785.786C803.44 786.047 803.15 786.388 802.945 786.808C802.749 787.228 802.651 787.723 802.651 788.292V797H799.655ZM814.406 797.28C813.473 797.28 812.642 797.112 811.914 796.776C811.196 796.44 810.631 795.955 810.22 795.32C809.81 794.685 809.604 793.92 809.604 793.024C809.604 791.419 810.174 790.219 811.312 789.426C812.451 788.633 814.266 788.213 816.758 788.166L819.138 788.096V787.046C819.138 786.215 818.891 785.562 818.396 785.086C817.902 784.61 817.141 784.377 816.114 784.386C815.34 784.386 814.649 784.563 814.042 784.918C813.445 785.273 813.053 785.856 812.866 786.668H810.262C810.318 785.707 810.594 784.899 811.088 784.246C811.592 783.583 812.283 783.084 813.16 782.748C814.038 782.412 815.069 782.244 816.254 782.244C817.57 782.244 818.653 782.426 819.502 782.79C820.352 783.145 820.982 783.667 821.392 784.358C821.812 785.049 822.022 785.889 822.022 786.878V797H819.488L819.25 794.34C818.709 795.451 818.023 796.221 817.192 796.65C816.371 797.07 815.442 797.28 814.406 797.28ZM815.344 795.194C815.802 795.194 816.254 795.115 816.702 794.956C817.15 794.788 817.556 794.564 817.92 794.284C818.284 793.995 818.574 793.673 818.788 793.318C819.012 792.963 819.129 792.599 819.138 792.226V789.832L817.178 789.874C816.18 789.883 815.33 789.986 814.63 790.182C813.94 790.378 813.408 790.681 813.034 791.092C812.67 791.503 812.488 792.049 812.488 792.73C812.488 793.505 812.759 794.111 813.3 794.55C813.842 794.979 814.523 795.194 815.344 795.194ZM845.074 782.524L840.58 797H837.836L834.7 786.836L831.69 797H828.988L824.452 782.524H827.182L830.346 793.066H830.542L833.636 782.524H835.862L839.054 793.038H839.25L842.302 782.524H845.074Z" fill="white"/>
<path d="M577.14 615.612C579.012 615.612 580.674 615.996 582.126 616.764C583.578 617.532 584.742 618.564 585.618 619.86C586.506 621.156 587.034 622.59 587.202 624.162H583.098C582.918 623.178 582.57 622.29 582.054 621.498C581.55 620.694 580.878 620.064 580.038 619.608C579.198 619.14 578.202 618.906 577.05 618.906C575.574 618.906 574.32 619.254 573.288 619.95C572.256 620.646 571.47 621.732 570.93 623.208C570.402 624.684 570.138 626.586 570.138 628.914C570.138 632.43 570.732 635.004 571.92 636.636C573.108 638.256 574.818 639.066 577.05 639.066C578.202 639.066 579.198 638.82 580.038 638.328C580.878 637.824 581.55 637.158 582.054 636.33C582.57 635.49 582.918 634.578 583.098 633.594H587.202C587.058 634.734 586.758 635.832 586.302 636.888C585.846 637.932 585.21 638.868 584.394 639.696C583.59 640.524 582.588 641.178 581.388 641.658C580.188 642.126 578.772 642.36 577.14 642.36C574.788 642.36 572.772 641.82 571.092 640.74C569.412 639.648 568.122 638.1 567.222 636.096C566.334 634.08 565.89 631.668 565.89 628.86C565.89 626.064 566.334 623.682 567.222 621.714C568.11 619.734 569.394 618.222 571.074 617.178C572.754 616.134 574.776 615.612 577.14 615.612ZM591.676 642V623.388H595.366V627.204C595.678 626.292 596.11 625.53 596.662 624.918C597.226 624.294 597.88 623.826 598.624 623.514C599.368 623.19 600.154 623.028 600.982 623.028C601.234 623.028 601.474 623.046 601.702 623.082C601.93 623.106 602.11 623.154 602.242 623.226V626.934C602.086 626.862 601.882 626.814 601.63 626.79C601.39 626.766 601.18 626.748 601 626.736C600.184 626.676 599.44 626.718 598.768 626.862C598.096 627.006 597.514 627.246 597.022 627.582C596.542 627.918 596.17 628.356 595.906 628.896C595.654 629.436 595.528 630.072 595.528 630.804V642H591.676ZM608.409 633.594C608.409 634.71 608.589 635.712 608.949 636.6C609.321 637.476 609.879 638.172 610.623 638.688C611.367 639.192 612.291 639.444 613.395 639.444C614.499 639.444 615.453 639.192 616.257 638.688C617.073 638.184 617.607 637.434 617.859 636.438H621.423C621.207 637.71 620.697 638.79 619.893 639.678C619.101 640.566 618.141 641.238 617.013 641.694C615.885 642.138 614.703 642.36 613.467 642.36C611.703 642.36 610.149 641.982 608.805 641.226C607.461 640.458 606.411 639.366 605.655 637.95C604.911 636.534 604.539 634.848 604.539 632.892C604.539 630.96 604.881 629.256 605.565 627.78C606.249 626.292 607.239 625.128 608.535 624.288C609.831 623.448 611.391 623.028 613.215 623.028C615.015 623.028 616.527 623.412 617.751 624.18C618.987 624.948 619.923 626.028 620.559 627.42C621.195 628.8 621.513 630.432 621.513 632.316V633.594H608.409ZM608.409 631.092H617.841C617.841 630.12 617.673 629.238 617.337 628.446C617.001 627.642 616.485 627.012 615.789 626.556C615.105 626.088 614.241 625.854 613.197 625.854C612.129 625.854 611.241 626.112 610.533 626.628C609.825 627.144 609.291 627.804 608.931 628.608C608.583 629.412 608.409 630.24 608.409 631.092ZM632.599 642.36C630.151 642.36 628.225 641.526 626.821 639.858C625.417 638.178 624.715 635.76 624.715 632.604C624.715 630.672 624.997 628.992 625.561 627.564C626.125 626.124 626.965 625.008 628.081 624.216C629.209 623.424 630.601 623.028 632.257 623.028C633.097 623.028 633.841 623.13 634.489 623.334C635.149 623.538 635.725 623.802 636.217 624.126C636.721 624.45 637.135 624.798 637.459 625.17C637.795 625.542 638.053 625.89 638.233 626.214V615.252H642.103V642H639.223L638.791 638.184C638.659 638.592 638.455 639.036 638.179 639.516C637.903 639.996 637.525 640.452 637.045 640.884C636.577 641.316 635.977 641.67 635.245 641.946C634.513 642.222 633.631 642.36 632.599 642.36ZM633.337 639.462C635.065 639.462 636.313 638.922 637.081 637.842C637.849 636.75 638.233 634.962 638.233 632.478C638.221 631.074 638.047 629.886 637.711 628.914C637.375 627.942 636.853 627.21 636.145 626.718C635.449 626.214 634.531 625.962 633.391 625.962C631.963 625.962 630.799 626.478 629.899 627.51C628.999 628.53 628.549 630.186 628.549 632.478C628.549 634.734 628.957 636.462 629.773 637.662C630.601 638.862 631.789 639.462 633.337 639.462ZM651.608 623.388V642H647.9V623.388H651.608ZM651.68 615.99V619.788H647.81V615.99H651.68ZM667.289 626.16H663.113L663.131 637.266C663.131 637.878 663.191 638.328 663.311 638.616C663.443 638.892 663.659 639.072 663.959 639.156C664.271 639.228 664.691 639.264 665.219 639.264H667.397V641.766C667.157 641.862 666.797 641.946 666.317 642.018C665.849 642.09 665.243 642.126 664.499 642.126C663.119 642.126 662.045 641.94 661.277 641.568C660.521 641.196 659.993 640.662 659.693 639.966C659.405 639.258 659.261 638.406 659.261 637.41V626.16H656.237V623.388H659.369L660.323 617.916H663.113V623.37H667.289V626.16ZM678.694 642L688.09 615.972H692.338L701.716 642H697.828L695.38 635.178H685.102L682.6 642H678.694ZM686.02 631.686H694.39L690.232 619.752L686.02 631.686ZM712.774 623.028C714.166 623.028 715.402 623.304 716.482 623.856C717.574 624.396 718.456 625.152 719.128 626.124C719.8 627.096 720.208 628.23 720.352 629.526H717.022C716.914 628.914 716.68 628.344 716.32 627.816C715.972 627.288 715.498 626.868 714.898 626.556C714.31 626.232 713.608 626.07 712.792 626.07C711.304 626.07 710.092 626.616 709.156 627.708C708.22 628.8 707.752 630.474 707.752 632.73C707.752 634.794 708.184 636.438 709.048 637.662C709.924 638.886 711.196 639.498 712.864 639.498C713.668 639.498 714.364 639.33 714.952 638.994C715.552 638.658 716.026 638.226 716.374 637.698C716.722 637.17 716.944 636.624 717.04 636.06H720.316C720.184 637.308 719.776 638.406 719.092 639.354C718.42 640.302 717.538 641.04 716.446 641.568C715.366 642.096 714.142 642.36 712.774 642.36C711.082 642.36 709.582 641.994 708.274 641.262C706.966 640.518 705.94 639.432 705.196 638.004C704.464 636.564 704.098 634.818 704.098 632.766C704.098 630.834 704.44 629.136 705.124 627.672C705.808 626.208 706.798 625.068 708.094 624.252C709.402 623.436 710.962 623.028 712.774 623.028ZM732.18 623.028C733.572 623.028 734.808 623.304 735.888 623.856C736.98 624.396 737.862 625.152 738.534 626.124C739.206 627.096 739.614 628.23 739.758 629.526H736.428C736.32 628.914 736.086 628.344 735.726 627.816C735.378 627.288 734.904 626.868 734.304 626.556C733.716 626.232 733.014 626.07 732.198 626.07C730.71 626.07 729.498 626.616 728.562 627.708C727.626 628.8 727.158 630.474 727.158 632.73C727.158 634.794 727.59 636.438 728.454 637.662C729.33 638.886 730.602 639.498 732.27 639.498C733.074 639.498 733.77 639.33 734.358 638.994C734.958 638.658 735.432 638.226 735.78 637.698C736.128 637.17 736.35 636.624 736.446 636.06H739.722C739.59 637.308 739.182 638.406 738.498 639.354C737.826 640.302 736.944 641.04 735.852 641.568C734.772 642.096 733.548 642.36 732.18 642.36C730.488 642.36 728.988 641.994 727.68 641.262C726.372 640.518 725.346 639.432 724.602 638.004C723.87 636.564 723.504 634.818 723.504 632.766C723.504 630.834 723.846 629.136 724.53 627.672C725.214 626.208 726.204 625.068 727.5 624.252C728.808 623.436 730.368 623.028 732.18 623.028ZM751.568 642.36C749.828 642.36 748.304 641.988 746.996 641.244C745.7 640.488 744.692 639.396 743.972 637.968C743.264 636.54 742.91 634.812 742.91 632.784C742.91 630.828 743.246 629.118 743.918 627.654C744.602 626.19 745.592 625.056 746.888 624.252C748.184 623.436 749.75 623.028 751.586 623.028C753.338 623.028 754.856 623.412 756.14 624.18C757.424 624.936 758.42 626.046 759.128 627.51C759.836 628.962 760.19 630.72 760.19 632.784C760.19 634.668 759.854 636.33 759.182 637.77C758.522 639.21 757.55 640.338 756.266 641.154C754.994 641.958 753.428 642.36 751.568 642.36ZM751.586 639.39C752.642 639.39 753.524 639.114 754.232 638.562C754.952 637.998 755.492 637.212 755.852 636.204C756.212 635.184 756.392 634.008 756.392 632.676C756.392 631.44 756.23 630.318 755.906 629.31C755.594 628.29 755.084 627.48 754.376 626.88C753.668 626.28 752.738 625.98 751.586 625.98C750.506 625.98 749.606 626.256 748.886 626.808C748.166 627.348 747.62 628.122 747.248 629.13C746.888 630.126 746.708 631.308 746.708 632.676C746.708 633.888 746.87 635.004 747.194 636.024C747.518 637.044 748.04 637.86 748.76 638.472C749.48 639.084 750.422 639.39 751.586 639.39ZM770.888 642.36C769.952 642.348 769.058 642.21 768.206 641.946C767.354 641.682 766.592 641.286 765.92 640.758C765.26 640.23 764.732 639.576 764.336 638.796C763.952 638.016 763.76 637.11 763.76 636.078V623.388H767.63V635.664C767.63 636.78 767.978 637.686 768.674 638.382C769.37 639.078 770.42 639.426 771.824 639.426C773.096 639.426 774.116 639.096 774.884 638.436C775.652 637.764 776.036 636.786 776.036 635.502V623.388H779.87V642H776.882L776.45 638.4C776.234 639.372 775.844 640.152 775.28 640.74C774.728 641.316 774.068 641.736 773.3 642C772.544 642.252 771.74 642.372 770.888 642.36ZM785.036 642V623.388H788.798V626.07C789.098 625.566 789.5 625.092 790.004 624.648C790.52 624.204 791.15 623.844 791.894 623.568C792.65 623.292 793.52 623.154 794.504 623.154C795.668 623.154 796.742 623.388 797.726 623.856C798.722 624.312 799.52 625.032 800.12 626.016C800.72 626.988 801.02 628.248 801.02 629.796V642H797.168V630.21C797.168 628.878 796.808 627.888 796.088 627.24C795.38 626.592 794.462 626.268 793.334 626.268C792.578 626.268 791.858 626.394 791.174 626.646C790.49 626.898 789.938 627.282 789.518 627.798C789.098 628.302 788.888 628.938 788.888 629.706V642H785.036ZM815.051 626.16H810.875L810.893 637.266C810.893 637.878 810.953 638.328 811.073 638.616C811.205 638.892 811.421 639.072 811.721 639.156C812.033 639.228 812.453 639.264 812.981 639.264H815.159V641.766C814.919 641.862 814.559 641.946 814.079 642.018C813.611 642.09 813.005 642.126 812.261 642.126C810.881 642.126 809.807 641.94 809.039 641.568C808.283 641.196 807.755 640.662 807.455 639.966C807.167 639.258 807.023 638.406 807.023 637.41V626.16H803.999V623.388H807.131L808.085 617.916H810.875V623.37H815.051V626.16Z" fill="white"/>
<path d="M580.968 728.48C576.808 728.48 573.432 727.648 570.84 725.984C568.248 724.304 566.76 721.72 566.376 718.232L573.672 718.088C574.056 719.672 574.88 720.88 576.144 721.712C577.424 722.528 579.024 722.936 580.944 722.936C582.096 722.936 583.112 722.752 583.992 722.384C584.888 722 585.592 721.488 586.104 720.848C586.616 720.192 586.872 719.448 586.872 718.616C586.872 717.336 586.464 716.384 585.648 715.76C584.832 715.12 583.576 714.608 581.88 714.224L576.192 713C573.552 712.472 571.432 711.424 569.832 709.856C568.248 708.272 567.44 706.152 567.408 703.496C567.392 701.32 567.976 699.44 569.16 697.856C570.36 696.256 571.984 695.024 574.032 694.16C576.096 693.296 578.408 692.864 580.968 692.864C583.592 692.864 585.856 693.336 587.76 694.28C589.68 695.208 591.152 696.464 592.176 698.048C593.216 699.616 593.72 701.352 593.688 703.256L586.608 703.376C586.384 701.84 585.872 700.632 585.072 699.752C584.272 698.872 582.944 698.432 581.088 698.432C580.128 698.432 579.272 698.536 578.52 698.744C577.768 698.952 577.12 699.248 576.576 699.632C576.032 700 575.616 700.44 575.328 700.952C575.056 701.464 574.92 702.04 574.92 702.68C574.92 703.688 575.256 704.488 575.928 705.08C576.616 705.656 577.904 706.192 579.792 706.688L585.384 708.056C588.536 708.808 590.808 710.096 592.2 711.92C593.608 713.744 594.312 715.96 594.312 718.568C594.312 720.568 593.76 722.312 592.656 723.8C591.568 725.288 590.024 726.44 588.024 727.256C586.024 728.072 583.672 728.48 580.968 728.48ZM577.968 688.328H584.04V694.568H577.968V688.328ZM577.848 726.344H583.896V732.584H577.848V726.344ZM604.928 728V702.008H598.736V698.048C600.72 698.048 602.32 697.864 603.536 697.496C604.768 697.112 605.688 696.568 606.296 695.864C606.904 695.144 607.264 694.288 607.376 693.296H612.032V728H604.928ZM635.083 693.296H641.971V714.44H647.323V720.32H641.971V728H635.227L635.251 720.32H619.267V714.56L635.083 693.296ZM625.747 714.44H635.251V701.72L625.747 714.44ZM650.767 693.296H676.687V699.032C675.583 700.408 674.471 702.032 673.351 703.904C672.247 705.776 671.183 707.776 670.159 709.904C669.151 712.032 668.239 714.184 667.423 716.36C666.607 718.536 665.951 720.624 665.455 722.624C664.959 724.624 664.687 726.416 664.639 728H657.079C657.207 726.592 657.527 724.816 658.039 722.672C658.551 720.512 659.295 718.128 660.271 715.52C661.263 712.896 662.503 710.176 663.991 707.36C665.495 704.544 667.287 701.768 669.367 699.032H650.767V693.296ZM675.522 734.72L678.306 728.192L675.858 727.976V721.184H682.938V727.16L678.114 734.72H675.522ZM692.314 693.296H714.61L714.346 699.032H697.858L697.186 707.408C698.466 706.688 699.682 706.168 700.834 705.848C702.002 705.528 703.282 705.368 704.674 705.368C706.994 705.368 709.066 705.808 710.89 706.688C712.73 707.552 714.186 708.824 715.258 710.504C716.33 712.184 716.866 714.232 716.866 716.648C716.866 719.096 716.314 721.208 715.21 722.984C714.106 724.76 712.538 726.128 710.506 727.088C708.49 728.048 706.098 728.528 703.33 728.528C701.058 728.528 698.946 728.176 696.994 727.472C695.042 726.768 693.354 725.808 691.93 724.592C690.506 723.36 689.426 721.952 688.69 720.368L694.162 717.128C694.786 718.216 695.49 719.2 696.274 720.08C697.058 720.944 697.962 721.632 698.986 722.144C700.026 722.64 701.234 722.888 702.61 722.888C704.69 722.888 706.362 722.336 707.626 721.232C708.89 720.128 709.522 718.688 709.522 716.912C709.522 715.792 709.234 714.792 708.658 713.912C708.098 713.016 707.322 712.312 706.33 711.8C705.338 711.288 704.178 711.032 702.85 711.032C702.146 711.032 701.474 711.096 700.834 711.224C700.21 711.336 699.57 711.56 698.914 711.896C698.274 712.216 697.562 712.68 696.778 713.288C696.554 713.384 696.394 713.432 696.298 713.432C696.218 713.432 696.058 713.376 695.818 713.264L690.73 710.912L692.314 693.296ZM733.825 728.528C731.665 728.528 729.649 728.112 727.777 727.28C725.905 726.448 724.377 725.28 723.193 723.776C722.009 722.256 721.345 720.48 721.201 718.448H727.873C728.161 719.792 728.801 720.888 729.793 721.736C730.785 722.568 732.033 722.984 733.537 722.984C735.201 722.984 736.657 722.592 737.905 721.808C739.169 721.024 740.113 719.776 740.737 718.064C741.377 716.352 741.601 714.112 741.409 711.344C740.961 712.192 740.337 712.936 739.537 713.576C738.753 714.2 737.833 714.688 736.777 715.04C735.721 715.376 734.545 715.544 733.249 715.544C730.897 715.544 728.809 715.104 726.985 714.224C725.177 713.328 723.753 712.064 722.713 710.432C721.689 708.784 721.177 706.832 721.177 704.576C721.177 702.304 721.721 700.28 722.809 698.504C723.897 696.728 725.417 695.336 727.369 694.328C729.321 693.32 731.609 692.816 734.233 692.816C737.177 692.816 739.713 693.52 741.841 694.928C743.985 696.32 745.625 698.304 746.761 700.88C747.913 703.44 748.489 706.456 748.489 709.928C748.489 714.072 747.897 717.528 746.713 720.296C745.545 723.048 743.865 725.112 741.673 726.488C739.481 727.848 736.865 728.528 733.825 728.528ZM734.449 709.976C735.425 709.976 736.369 709.76 737.281 709.328C738.209 708.88 738.969 708.32 739.561 707.648C740.153 706.976 740.449 706.28 740.449 705.56C740.465 704.008 740.217 702.68 739.705 701.576C739.209 700.456 738.505 699.6 737.593 699.008C736.697 698.416 735.649 698.12 734.449 698.12C733.345 698.12 732.361 698.376 731.497 698.888C730.633 699.4 729.953 700.12 729.457 701.048C728.961 701.976 728.713 703.048 728.713 704.264C728.713 706.072 729.241 707.48 730.297 708.488C731.353 709.48 732.737 709.976 734.449 709.976ZM766.549 692.816C768.933 692.816 771.061 693.192 772.933 693.944C774.821 694.696 776.309 695.8 777.397 697.256C778.485 698.696 779.029 700.472 779.029 702.584C779.029 704.36 778.541 705.872 777.565 707.12C776.589 708.368 775.389 709.328 773.965 710C775.021 710.224 776.053 710.752 777.061 711.584C778.085 712.4 778.925 713.408 779.581 714.608C780.237 715.792 780.565 717.048 780.565 718.376C780.565 720.44 779.981 722.232 778.813 723.752C777.661 725.272 776.029 726.448 773.917 727.28C771.821 728.096 769.365 728.504 766.549 728.504C763.765 728.504 761.325 728.096 759.229 727.28C757.133 726.448 755.501 725.272 754.333 723.752C753.165 722.232 752.581 720.44 752.581 718.376C752.581 717.048 752.909 715.792 753.565 714.608C754.221 713.408 755.053 712.4 756.061 711.584C757.069 710.752 758.109 710.224 759.181 710C757.757 709.328 756.549 708.368 755.557 707.12C754.565 705.872 754.069 704.36 754.069 702.584C754.069 700.472 754.613 698.696 755.701 697.256C756.805 695.8 758.301 694.696 760.189 693.944C762.077 693.192 764.197 692.816 766.549 692.816ZM766.549 707.288C768.149 707.288 769.461 706.864 770.485 706.016C771.525 705.152 772.045 703.96 772.045 702.44C772.045 700.936 771.525 699.744 770.485 698.864C769.445 697.984 768.133 697.544 766.549 697.544C764.981 697.544 763.677 697.984 762.637 698.864C761.597 699.744 761.077 700.936 761.077 702.44C761.077 703.96 761.597 705.152 762.637 706.016C763.677 706.864 764.981 707.288 766.549 707.288ZM766.549 723.224C768.597 723.224 770.197 722.768 771.349 721.856C772.517 720.928 773.101 719.704 773.101 718.184C773.101 717.16 772.837 716.264 772.309 715.496C771.781 714.712 771.029 714.096 770.053 713.648C769.077 713.2 767.909 712.976 766.549 712.976C765.221 712.976 764.069 713.2 763.093 713.648C762.117 714.096 761.365 714.712 760.837 715.496C760.309 716.264 760.045 717.16 760.045 718.184C760.045 719.704 760.629 720.928 761.797 721.856C762.965 722.768 764.549 723.224 766.549 723.224ZM785.048 728V720.368H792.728V728H785.048ZM812.289 692.816C814.465 692.816 816.473 693.216 818.313 694.016C820.153 694.8 821.649 695.944 822.801 697.448C823.969 698.936 824.609 700.728 824.721 702.824H818.313C817.897 701.368 817.193 700.264 816.201 699.512C815.209 698.744 813.953 698.36 812.433 698.36C810.769 698.36 809.385 698.832 808.281 699.776C807.177 700.72 806.385 702.04 805.905 703.736C805.425 705.432 805.297 707.408 805.521 709.664C806.049 708.896 806.721 708.248 807.537 707.72C808.353 707.176 809.265 706.76 810.273 706.472C811.281 706.184 812.329 706.04 813.417 706.04C815.769 706.04 817.825 706.48 819.585 707.36C821.345 708.224 822.721 709.456 823.713 711.056C824.705 712.656 825.201 714.528 825.201 716.672C825.201 718.944 824.641 720.976 823.521 722.768C822.417 724.544 820.873 725.952 818.889 726.992C816.905 728.016 814.609 728.528 812.001 728.528C809.057 728.528 806.513 727.816 804.369 726.392C802.225 724.968 800.577 722.968 799.425 720.392C798.289 717.816 797.721 714.792 797.721 711.32C797.721 707.512 798.297 704.224 799.449 701.456C800.617 698.688 802.289 696.56 804.465 695.072C806.641 693.568 809.249 692.816 812.289 692.816ZM811.785 711.272C810.793 711.272 809.833 711.496 808.905 711.944C807.993 712.376 807.241 712.936 806.649 713.624C806.073 714.296 805.785 714.984 805.785 715.688C805.769 717.24 806.009 718.576 806.505 719.696C807.017 720.8 807.721 721.656 808.617 722.264C809.529 722.856 810.577 723.152 811.761 723.152C812.881 723.152 813.889 722.896 814.785 722.384C815.697 721.856 816.425 721.128 816.969 720.2C817.513 719.272 817.785 718.208 817.785 717.008C817.785 715.728 817.521 714.664 816.993 713.816C816.465 712.968 815.745 712.336 814.833 711.92C813.937 711.488 812.921 711.272 811.785 711.272ZM830.009 728V724.544V722.768C830.009 721.008 830.337 719.488 830.993 718.208C831.649 716.912 832.513 715.792 833.585 714.848C834.673 713.888 835.857 713.048 837.137 712.328C838.433 711.608 839.729 710.928 841.025 710.288C842.321 709.648 843.505 709.008 844.577 708.368C845.665 707.712 846.537 706.984 847.193 706.184C847.849 705.384 848.177 704.44 848.177 703.352C848.177 701.96 847.689 700.824 846.713 699.944C845.753 699.064 844.433 698.624 842.753 698.624C841.009 698.624 839.529 699.128 838.313 700.136C837.097 701.144 836.345 702.664 836.057 704.696H829.361C829.393 702.488 829.905 700.488 830.897 698.696C831.905 696.888 833.409 695.456 835.409 694.4C837.409 693.344 839.921 692.816 842.945 692.816C845.537 692.816 847.769 693.256 849.641 694.136C851.529 695.016 852.985 696.24 854.009 697.808C855.033 699.376 855.545 701.208 855.545 703.304C855.545 705.048 855.225 706.552 854.585 707.816C853.945 709.08 853.097 710.16 852.041 711.056C850.985 711.952 849.825 712.736 848.561 713.408C847.297 714.08 846.033 714.704 844.769 715.28C843.521 715.856 842.369 716.448 841.313 717.056C840.257 717.648 839.409 718.32 838.769 719.072C838.129 719.824 837.809 720.728 837.809 721.784V722.096H855.497V728H830.009Z" fill="white"/>
</g>
<mask id="mask1_5_3" style="mask-type:alpha" maskUnits="userSpaceOnUse" x="0" y="132" width="482" height="514">
<rect width="480" height="512" rx="16" transform="matrix(-1 0 0 1 481 133)" fill="url(#paint2_linear_5_3)" fill-opacity="1" stroke="#EEEEEE"/>
</mask>
<g mask="url(#mask1_5_3)">
<g filter="url(#filter2_b_5_3)">
<rect width="480" height="512" rx="16" transform="matrix(-1 0 0 1 481 133)" fill="url(#paint3_linear_5_3)"/>
<rect width="480" height="512" rx="16" transform="matrix(-1 0 0 1 481 133)" stroke="#EEEEEE"/>
</g>
<circle cx="235" cy="320" r="120" stroke="white" stroke-width="20"/>
<path d="M235 199.923C211.266 199.923 188.065 206.961 168.332 220.147C148.598 233.332 133.217 252.074 124.134 274.001C115.052 295.928 112.676 320.056 117.306 343.334C121.936 366.612 133.365 387.994 150.147 404.776C166.93 421.558 188.312 432.987 211.589 437.617C234.867 442.248 258.995 439.871 280.922 430.789C302.849 421.706 321.591 406.325 334.776 386.591C347.962 366.858 355 343.657 355 319.923" stroke="#1B4CD1" stroke-width="20"/>
<circle cx="53" cy="531" r="12" fill="#1B4CD1"/>
<circle cx="53" cy="590" r="12" fill="white"/>
<path d="M92.05 538.2C91.3367 538.2 90.6367 538.11 89.95 537.93C89.2633 537.75 88.6367 537.48 88.07 537.12C87.5033 536.76 87.0333 536.31 86.66 535.77C86.2933 535.23 86.0733 534.597 86 533.87H88.99C89.09 534.31 89.28 534.68 89.56 534.98C89.84 535.28 90.1933 535.51 90.62 535.67C91.0467 535.83 91.52 535.91 92.04 535.91C92.5733 535.91 93.06 535.843 93.5 535.71C93.94 535.577 94.2933 535.377 94.56 535.11C94.8267 534.837 94.96 534.497 94.96 534.09C94.96 533.723 94.85 533.423 94.63 533.19C94.4167 532.957 94.1267 532.767 93.76 532.62C93.3933 532.473 92.9767 532.353 92.51 532.26L90.01 531.75C88.9167 531.543 88.05 531.11 87.41 530.45C86.77 529.783 86.44 528.897 86.42 527.79C86.4133 526.883 86.6533 526.1 87.14 525.44C87.6333 524.773 88.3 524.26 89.14 523.9C89.9867 523.54 90.9333 523.36 91.98 523.36C93.2267 523.36 94.2733 523.557 95.12 523.95C95.9733 524.337 96.62 524.863 97.06 525.53C97.5067 526.19 97.7367 526.927 97.75 527.74H94.82C94.7667 527.233 94.6133 526.83 94.36 526.53C94.1067 526.23 93.78 526.013 93.38 525.88C92.9867 525.747 92.5367 525.68 92.03 525.68C91.6433 525.68 91.29 525.723 90.97 525.81C90.6567 525.897 90.39 526.02 90.17 526.18C89.95 526.333 89.78 526.517 89.66 526.73C89.54 526.943 89.48 527.183 89.48 527.45C89.48 527.87 89.62 528.21 89.9 528.47C90.18 528.73 90.7033 528.943 91.47 529.11L93.95 529.62C94.8367 529.793 95.54 530.05 96.06 530.39C96.5867 530.73 96.98 531.113 97.24 531.54C97.5067 531.967 97.68 532.403 97.76 532.85C97.8467 533.29 97.89 533.697 97.89 534.07C97.89 534.85 97.6433 535.553 97.15 536.18C96.6633 536.8 95.9833 537.293 95.11 537.66C94.2367 538.02 93.2167 538.2 92.05 538.2ZM99.1886 526.14V523.54H110.759V526.14H106.489V538H103.559V526.14H99.1886ZM109.984 538L115.164 523.54H118.244L123.414 538H120.504L119.324 534.65H114.124L112.914 538H109.984ZM114.774 532.1H118.624L116.714 526.36L114.774 532.1ZM130.722 538.2C130.009 538.2 129.309 538.11 128.622 537.93C127.935 537.75 127.309 537.48 126.742 537.12C126.175 536.76 125.705 536.31 125.332 535.77C124.965 535.23 124.745 534.597 124.672 533.87H127.662C127.762 534.31 127.952 534.68 128.232 534.98C128.512 535.28 128.865 535.51 129.292 535.67C129.719 535.83 130.192 535.91 130.712 535.91C131.245 535.91 131.732 535.843 132.172 535.71C132.612 535.577 132.965 535.377 133.232 535.11C133.499 534.837 133.632 534.497 133.632 534.09C133.632 533.723 133.522 533.423 133.302 533.19C133.089 532.957 132.799 532.767 132.432 532.62C132.065 532.473 131.649 532.353 131.182 532.26L128.682 531.75C127.589 531.543 126.722 531.11 126.082 530.45C125.442 529.783 125.112 528.897 125.092 527.79C125.085 526.883 125.325 526.1 125.812 525.44C126.305 524.773 126.972 524.26 127.812 523.9C128.659 523.54 129.605 523.36 130.652 523.36C131.899 523.36 132.945 523.557 133.792 523.95C134.645 524.337 135.292 524.863 135.732 525.53C136.179 526.19 136.409 526.927 136.422 527.74H133.492C133.439 527.233 133.285 526.83 133.032 526.53C132.779 526.23 132.452 526.013 132.052 525.88C131.659 525.747 131.209 525.68 130.702 525.68C130.315 525.68 129.962 525.723 129.642 525.81C129.329 525.897 129.062 526.02 128.842 526.18C128.622 526.333 128.452 526.517 128.332 526.73C128.212 526.943 128.152 527.183 128.152 527.45C128.152 527.87 128.292 528.21 128.572 528.47C128.852 528.73 129.375 528.943 130.142 529.11L132.622 529.62C133.509 529.793 134.212 530.05 134.732 530.39C135.259 530.73 135.652 531.113 135.912 531.54C136.179 531.967 136.352 532.403 136.432 532.85C136.519 533.29 136.562 533.697 136.562 534.07C136.562 534.85 136.315 535.553 135.822 536.18C135.335 536.8 134.655 537.293 133.782 537.66C132.909 538.02 131.889 538.2 130.722 538.2ZM148.38 531.79H142.05V538H139.14V523.54H142.05V529.34H148.38V523.54H151.3V538H148.38V531.79Z" fill="#1B4CD1"/>
<path d="M358.484 540.24C356.404 540.24 354.716 539.824 353.42 538.992C352.124 538.152 351.38 536.86 351.188 535.116L354.836 535.044C355.028 535.836 355.44 536.44 356.072 536.856C356.712 537.264 357.512 537.468 358.472 537.468C359.048 537.468 359.556 537.376 359.996 537.192C360.444 537 360.796 536.744 361.052 536.424C361.308 536.096 361.436 535.724 361.436 535.308C361.436 534.668 361.232 534.192 360.824 533.88C360.416 533.56 359.788 533.304 358.94 533.112L356.096 532.5C354.776 532.236 353.716 531.712 352.916 530.928C352.124 530.136 351.72 529.076 351.704 527.748C351.696 526.66 351.988 525.72 352.58 524.928C353.18 524.128 353.992 523.512 355.016 523.08C356.048 522.648 357.204 522.432 358.484 522.432C359.796 522.432 360.928 522.668 361.88 523.14C362.84 523.604 363.576 524.232 364.088 525.024C364.608 525.808 364.86 526.676 364.844 527.628L361.304 527.688C361.192 526.92 360.936 526.316 360.536 525.876C360.136 525.436 359.472 525.216 358.544 525.216C358.064 525.216 357.636 525.268 357.26 525.372C356.884 525.476 356.56 525.624 356.288 525.816C356.016 526 355.808 526.22 355.664 526.476C355.528 526.732 355.46 527.02 355.46 527.34C355.46 527.844 355.628 528.244 355.964 528.54C356.308 528.828 356.952 529.096 357.896 529.344L360.692 530.028C362.268 530.404 363.404 531.048 364.1 531.96C364.804 532.872 365.156 533.98 365.156 535.284C365.156 536.284 364.88 537.156 364.328 537.9C363.784 538.644 363.012 539.22 362.012 539.628C361.012 540.036 359.836 540.24 358.484 540.24ZM356.984 520.164H360.02V523.284H356.984V520.164ZM356.924 539.172H359.948V542.292H356.924V539.172ZM370.464 540V527.004H367.368V525.024C368.36 525.024 369.16 524.932 369.768 524.748C370.384 524.556 370.844 524.284 371.148 523.932C371.452 523.572 371.632 523.144 371.688 522.648H374.016V540H370.464ZM380.73 540V527.004H377.634V525.024C378.626 525.024 379.426 524.932 380.034 524.748C380.65 524.556 381.11 524.284 381.414 523.932C381.718 523.572 381.898 523.144 381.954 522.648H384.282V540H380.73ZM388.223 540V538.272V537.384C388.223 536.504 388.387 535.744 388.715 535.104C389.043 534.456 389.475 533.896 390.011 533.424C390.555 532.944 391.147 532.524 391.787 532.164C392.435 531.804 393.083 531.464 393.731 531.144C394.379 530.824 394.971 530.504 395.507 530.184C396.051 529.856 396.487 529.492 396.815 529.092C397.143 528.692 397.307 528.22 397.307 527.676C397.307 526.98 397.063 526.412 396.575 525.972C396.095 525.532 395.435 525.312 394.595 525.312C393.723 525.312 392.983 525.564 392.375 526.068C391.767 526.572 391.391 527.332 391.247 528.348H387.899C387.915 527.244 388.171 526.244 388.667 525.348C389.171 524.444 389.923 523.728 390.923 523.2C391.923 522.672 393.179 522.408 394.691 522.408C395.987 522.408 397.103 522.628 398.039 523.068C398.983 523.508 399.711 524.12 400.223 524.904C400.735 525.688 400.991 526.604 400.991 527.652C400.991 528.524 400.831 529.276 400.511 529.908C400.191 530.54 399.767 531.08 399.239 531.528C398.711 531.976 398.131 532.368 397.499 532.704C396.867 533.04 396.235 533.352 395.603 533.64C394.979 533.928 394.403 534.224 393.875 534.528C393.347 534.824 392.923 535.16 392.603 535.536C392.283 535.912 392.123 536.364 392.123 536.892V537.048H400.967V540H388.223ZM403.23 543.36L404.622 540.096L403.398 539.988V536.592H406.938V539.58L404.526 543.36H403.23ZM411.626 522.648H422.774L422.642 525.516H414.398L414.062 529.704C414.702 529.344 415.31 529.084 415.886 528.924C416.47 528.764 417.11 528.684 417.806 528.684C418.966 528.684 420.002 528.904 420.914 529.344C421.834 529.776 422.562 530.412 423.098 531.252C423.634 532.092 423.902 533.116 423.902 534.324C423.902 535.548 423.626 536.604 423.074 537.492C422.522 538.38 421.738 539.064 420.722 539.544C419.714 540.024 418.518 540.264 417.134 540.264C415.998 540.264 414.942 540.088 413.966 539.736C412.99 539.384 412.146 538.904 411.434 538.296C410.722 537.68 410.182 536.976 409.814 536.184L412.55 534.564C412.862 535.108 413.214 535.6 413.606 536.04C413.998 536.472 414.45 536.816 414.962 537.072C415.482 537.32 416.086 537.444 416.774 537.444C417.814 537.444 418.65 537.168 419.282 536.616C419.914 536.064 420.23 535.344 420.23 534.456C420.23 533.896 420.086 533.396 419.798 532.956C419.518 532.508 419.13 532.156 418.634 531.9C418.138 531.644 417.558 531.516 416.894 531.516C416.542 531.516 416.206 531.548 415.886 531.612C415.574 531.668 415.254 531.78 414.926 531.948C414.606 532.108 414.25 532.34 413.858 532.644C413.746 532.692 413.666 532.716 413.618 532.716C413.578 532.716 413.498 532.688 413.378 532.632L410.834 531.456L411.626 522.648ZM432.705 522.408C434.769 522.408 436.397 523.18 437.589 524.724C438.781 526.26 439.377 528.472 439.377 531.36C439.377 534.232 438.789 536.436 437.613 537.972C436.437 539.5 434.801 540.264 432.705 540.264C430.601 540.264 428.957 539.5 427.773 537.972C426.597 536.444 426.009 534.244 426.009 531.372C426.009 529.452 426.281 527.824 426.825 526.488C427.369 525.152 428.141 524.14 429.141 523.452C430.141 522.756 431.329 522.408 432.705 522.408ZM432.705 537.396C433.737 537.396 434.493 536.936 434.973 536.016C435.453 535.088 435.693 533.54 435.693 531.372C435.693 529.156 435.449 527.568 434.961 526.608C434.473 525.648 433.717 525.168 432.693 525.168C431.669 525.168 430.905 525.652 430.401 526.62C429.905 527.588 429.657 529.172 429.657 531.372C429.657 533.532 429.905 535.076 430.401 536.004C430.897 536.932 431.665 537.396 432.705 537.396ZM448.104 522.408C450.168 522.408 451.796 523.18 452.988 524.724C454.18 526.26 454.776 528.472 454.776 531.36C454.776 534.232 454.188 536.436 453.012 537.972C451.836 539.5 450.2 540.264 448.104 540.264C446 540.264 444.356 539.5 443.172 537.972C441.996 536.444 441.408 534.244 441.408 531.372C441.408 529.452 441.68 527.824 442.224 526.488C442.768 525.152 443.54 524.14 444.54 523.452C445.54 522.756 446.728 522.408 448.104 522.408ZM448.104 537.396C449.136 537.396 449.892 536.936 450.372 536.016C450.852 535.088 451.092 533.54 451.092 531.372C451.092 529.156 450.848 527.568 450.36 526.608C449.872 525.648 449.116 525.168 448.092 525.168C447.068 525.168 446.304 525.652 445.8 526.62C445.304 527.588 445.056 529.172 445.056 531.372C445.056 533.532 445.304 535.076 445.8 536.004C446.296 536.932 447.064 537.396 448.104 537.396Z" fill="white"/>
<path d="M184.624 343V309.304H176.656V303.416C179.259 303.416 181.392 303.139 183.056 302.584C184.741 302.029 186.021 301.251 186.896 300.248C187.792 299.245 188.325 298.072 188.496 296.728H195.6V343H184.624ZM223.855 296.088C227.119 296.088 230.041 296.6 232.623 297.624C235.204 298.627 237.241 300.109 238.735 302.072C240.228 304.035 240.975 306.435 240.975 309.272C240.975 311.597 240.335 313.581 239.055 315.224C237.775 316.867 236.228 318.136 234.415 319.032C235.78 319.331 237.113 320.013 238.415 321.08C239.737 322.147 240.825 323.469 241.679 325.048C242.553 326.605 242.991 328.259 242.991 330.008C242.991 332.803 242.191 335.224 240.591 337.272C239.012 339.32 236.783 340.899 233.903 342.008C231.023 343.117 227.673 343.672 223.855 343.672C220.036 343.672 216.697 343.117 213.839 342.008C210.98 340.899 208.751 339.32 207.151 337.272C205.551 335.224 204.751 332.803 204.751 330.008C204.751 328.259 205.177 326.605 206.031 325.048C206.884 323.469 207.972 322.147 209.295 321.08C210.617 320.013 211.951 319.331 213.295 319.032C211.524 318.136 209.988 316.867 208.687 315.224C207.385 313.581 206.735 311.597 206.735 309.272C206.735 306.435 207.481 304.035 208.975 302.072C210.468 300.109 212.505 298.627 215.087 297.624C217.689 296.6 220.612 296.088 223.855 296.088ZM223.855 314.936C225.647 314.936 227.14 314.424 228.335 313.4C229.551 312.355 230.159 310.925 230.159 309.112C230.159 307.299 229.551 305.869 228.335 304.824C227.14 303.757 225.647 303.224 223.855 303.224C222.084 303.224 220.591 303.757 219.375 304.824C218.159 305.869 217.551 307.299 217.551 309.112C217.551 310.925 218.159 312.355 219.375 313.4C220.591 314.424 222.084 314.936 223.855 314.936ZM223.855 335.576C226.244 335.576 228.1 335.043 229.423 333.976C230.767 332.888 231.439 331.448 231.439 329.656C231.439 328.461 231.129 327.405 230.511 326.488C229.913 325.571 229.049 324.856 227.919 324.344C226.809 323.832 225.455 323.576 223.855 323.576C222.297 323.576 220.953 323.832 219.823 324.344C218.692 324.856 217.817 325.571 217.199 326.488C216.601 327.405 216.303 328.461 216.303 329.656C216.303 331.448 216.975 332.888 218.319 333.976C219.663 335.043 221.508 335.576 223.855 335.576ZM260.536 296.024C262.754 296.024 264.77 296.632 266.584 297.848C268.397 299.064 269.826 300.675 270.872 302.68C271.938 304.685 272.472 306.883 272.472 309.272C272.472 311.619 271.949 313.773 270.904 315.736C269.858 317.677 268.429 319.245 266.616 320.44C264.824 321.613 262.797 322.2 260.536 322.2C258.232 322.2 256.162 321.613 254.328 320.44C252.514 319.245 251.074 317.677 250.008 315.736C248.962 313.773 248.44 311.619 248.44 309.272C248.44 306.883 248.973 304.685 250.04 302.68C251.128 300.675 252.578 299.064 254.392 297.848C256.226 296.632 258.274 296.024 260.536 296.024ZM260.472 316.792C261.965 316.792 263.01 316.141 263.608 314.84C264.205 313.539 264.503 311.683 264.503 309.272C264.503 306.755 264.184 304.813 263.544 303.448C262.925 302.083 261.901 301.4 260.472 301.4C259.512 301.4 258.733 301.709 258.136 302.328C257.538 302.947 257.101 303.843 256.824 305.016C256.546 306.189 256.408 307.608 256.408 309.272C256.408 311.683 256.717 313.539 257.336 314.84C257.954 316.141 259 316.792 260.472 316.792ZM291.512 317.4C293.773 317.4 295.81 318.019 297.624 319.256C299.437 320.472 300.866 322.083 301.912 324.088C302.978 326.093 303.512 328.28 303.512 330.648C303.512 332.995 302.989 335.149 301.944 337.112C300.898 339.075 299.469 340.653 297.656 341.848C295.842 343.043 293.794 343.64 291.512 343.64C289.229 343.64 287.17 343.043 285.336 341.848C283.501 340.653 282.061 339.075 281.016 337.112C279.97 335.149 279.448 332.995 279.448 330.648C279.448 328.28 279.981 326.093 281.048 324.088C282.114 322.083 283.554 320.472 285.368 319.256C287.202 318.019 289.25 317.4 291.512 317.4ZM291.448 338.168C292.429 338.168 293.218 337.869 293.816 337.272C294.413 336.675 294.84 335.832 295.096 334.744C295.373 333.635 295.512 332.291 295.512 330.712C295.512 329.048 295.373 327.629 295.096 326.456C294.818 325.261 294.37 324.355 293.752 323.736C293.154 323.117 292.386 322.808 291.448 322.808C290.509 322.808 289.741 323.128 289.144 323.768C288.568 324.387 288.141 325.293 287.864 326.488C287.586 327.661 287.448 329.069 287.448 330.712C287.448 332.291 287.576 333.635 287.832 334.744C288.109 335.832 288.536 336.675 289.112 337.272C289.709 337.869 290.488 338.168 291.448 338.168ZM294.2 296.216L263.096 343.256L256.888 343.16L288.088 296.216H294.2Z" fill="white"/>
<path d="M92.05 597.2C91.3367 597.2 90.6367 597.11 89.95 596.93C89.2633 596.75 88.6367 596.48 88.07 596.12C87.5033 595.76 87.0333 595.31 86.66 594.77C86.2933 594.23 86.0733 593.597 86 592.87H88.99C89.09 593.31 89.28 593.68 89.56 593.98C89.84 594.28 90.1933 594.51 90.62 594.67C91.0467 594.83 91.52 594.91 92.04 594.91C92.5733 594.91 93.06 594.843 93.5 594.71C93.94 594.577 94.2933 594.377 94.56 594.11C94.8267 593.837 94.96 593.497 94.96 593.09C94.96 592.723 94.85 592.423 94.63 592.19C94.4167 591.957 94.1267 591.767 93.76 591.62C93.3933 591.473 92.9767 591.353 92.51 591.26L90.01 590.75C88.9167 590.543 88.05 590.11 87.41 589.45C86.77 588.783 86.44 587.897 86.42 586.79C86.4133 585.883 86.6533 585.1 87.14 584.44C87.6333 583.773 88.3 583.26 89.14 582.9C89.9867 582.54 90.9333 582.36 91.98 582.36C93.2267 582.36 94.2733 582.557 95.12 582.95C95.9733 583.337 96.62 583.863 97.06 584.53C97.5067 585.19 97.7367 585.927 97.75 586.74H94.82C94.7667 586.233 94.6133 585.83 94.36 585.53C94.1067 585.23 93.78 585.013 93.38 584.88C92.9867 584.747 92.5367 584.68 92.03 584.68C91.6433 584.68 91.29 584.723 90.97 584.81C90.6567 584.897 90.39 585.02 90.17 585.18C89.95 585.333 89.78 585.517 89.66 585.73C89.54 585.943 89.48 586.183 89.48 586.45C89.48 586.87 89.62 587.21 89.9 587.47C90.18 587.73 90.7033 587.943 91.47 588.11L93.95 588.62C94.8367 588.793 95.54 589.05 96.06 589.39C96.5867 589.73 96.98 590.113 97.24 590.54C97.5067 590.967 97.68 591.403 97.76 591.85C97.8467 592.29 97.89 592.697 97.89 593.07C97.89 593.85 97.6433 594.553 97.15 595.18C96.6633 595.8 95.9833 596.293 95.11 596.66C94.2367 597.02 93.2167 597.2 92.05 597.2ZM99.1633 597L104.343 582.54H107.423L112.593 597H109.683L108.503 593.65H103.303L102.093 597H99.1633ZM103.953 591.1H107.803L105.893 585.36L103.953 591.1ZM124.548 582.54L119.558 597H116.248L111.298 582.54H114.088L117.908 593.61L121.758 582.54H124.548ZM126.542 582.54H129.452V597H126.542V582.54ZM142.184 582.54H145.104V597H142.474L135.604 587.05V597H132.694V582.54H135.584L142.184 592.11V582.54ZM154.189 597.2C152.862 597.2 151.709 596.9 150.729 596.3C149.755 595.693 149.002 594.837 148.469 593.73C147.942 592.623 147.679 591.317 147.679 589.81C147.679 588.277 147.955 586.953 148.509 585.84C149.069 584.72 149.849 583.857 150.849 583.25C151.849 582.643 153.015 582.34 154.349 582.34C155.209 582.34 155.992 582.477 156.699 582.75C157.405 583.023 158.019 583.397 158.539 583.87C159.065 584.343 159.475 584.88 159.769 585.48C160.069 586.073 160.232 586.69 160.259 587.33H157.179C157.092 586.87 156.919 586.45 156.659 586.07C156.405 585.69 156.079 585.387 155.679 585.16C155.279 584.927 154.812 584.81 154.279 584.81C153.639 584.81 153.059 584.977 152.539 585.31C152.019 585.637 151.609 586.16 151.309 586.88C151.009 587.6 150.859 588.55 150.859 589.73C150.859 590.683 150.955 591.477 151.149 592.11C151.349 592.743 151.615 593.247 151.949 593.62C152.282 593.987 152.662 594.247 153.089 594.4C153.515 594.553 153.952 594.63 154.399 594.63C154.825 594.63 155.205 594.56 155.539 594.42C155.879 594.273 156.169 594.087 156.409 593.86C156.649 593.633 156.839 593.387 156.979 593.12C157.119 592.847 157.209 592.58 157.249 592.32L157.359 591.44H154.369V589.42L160.419 589.45V597H158.429V595.11C158.182 595.437 157.875 595.763 157.509 596.09C157.149 596.41 156.699 596.677 156.159 596.89C155.625 597.097 154.969 597.2 154.189 597.2ZM168.925 597.2C168.212 597.2 167.512 597.11 166.825 596.93C166.138 596.75 165.512 596.48 164.945 596.12C164.378 595.76 163.908 595.31 163.535 594.77C163.168 594.23 162.948 593.597 162.875 592.87H165.865C165.965 593.31 166.155 593.68 166.435 593.98C166.715 594.28 167.068 594.51 167.495 594.67C167.922 594.83 168.395 594.91 168.915 594.91C169.448 594.91 169.935 594.843 170.375 594.71C170.815 594.577 171.168 594.377 171.435 594.11C171.702 593.837 171.835 593.497 171.835 593.09C171.835 592.723 171.725 592.423 171.505 592.19C171.292 591.957 171.002 591.767 170.635 591.62C170.268 591.473 169.852 591.353 169.385 591.26L166.885 590.75C165.792 590.543 164.925 590.11 164.285 589.45C163.645 588.783 163.315 587.897 163.295 586.79C163.288 585.883 163.528 585.1 164.015 584.44C164.508 583.773 165.175 583.26 166.015 582.9C166.862 582.54 167.808 582.36 168.855 582.36C170.102 582.36 171.148 582.557 171.995 582.95C172.848 583.337 173.495 583.863 173.935 584.53C174.382 585.19 174.612 585.927 174.625 586.74H171.695C171.642 586.233 171.488 585.83 171.235 585.53C170.982 585.23 170.655 585.013 170.255 584.88C169.862 584.747 169.412 584.68 168.905 584.68C168.518 584.68 168.165 584.723 167.845 584.81C167.532 584.897 167.265 585.02 167.045 585.18C166.825 585.333 166.655 585.517 166.535 585.73C166.415 585.943 166.355 586.183 166.355 586.45C166.355 586.87 166.495 587.21 166.775 587.47C167.055 587.73 167.578 587.943 168.345 588.11L170.825 588.62C171.712 588.793 172.415 589.05 172.935 589.39C173.462 589.73 173.855 590.113 174.115 590.54C174.382 590.967 174.555 591.403 174.635 591.85C174.722 592.29 174.765 592.697 174.765 593.07C174.765 593.85 174.518 594.553 174.025 595.18C173.538 595.8 172.858 596.293 171.985 596.66C171.112 597.02 170.092 597.2 168.925 597.2Z" fill="white"/>
<path d="M367.484 599.24C365.404 599.24 363.716 598.824 362.42 597.992C361.124 597.152 360.38 595.86 360.188 594.116L363.836 594.044C364.028 594.836 364.44 595.44 365.072 595.856C365.712 596.264 366.512 596.468 367.472 596.468C368.048 596.468 368.556 596.376 368.996 596.192C369.444 596 369.796 595.744 370.052 595.424C370.308 595.096 370.436 594.724 370.436 594.308C370.436 593.668 370.232 593.192 369.824 592.88C369.416 592.56 368.788 592.304 367.94 592.112L365.096 591.5C363.776 591.236 362.716 590.712 361.916 589.928C361.124 589.136 360.72 588.076 360.704 586.748C360.696 585.66 360.988 584.72 361.58 583.928C362.18 583.128 362.992 582.512 364.016 582.08C365.048 581.648 366.204 581.432 367.484 581.432C368.796 581.432 369.928 581.668 370.88 582.14C371.84 582.604 372.576 583.232 373.088 584.024C373.608 584.808 373.86 585.676 373.844 586.628L370.304 586.688C370.192 585.92 369.936 585.316 369.536 584.876C369.136 584.436 368.472 584.216 367.544 584.216C367.064 584.216 366.636 584.268 366.26 584.372C365.884 584.476 365.56 584.624 365.288 584.816C365.016 585 364.808 585.22 364.664 585.476C364.528 585.732 364.46 586.02 364.46 586.34C364.46 586.844 364.628 587.244 364.964 587.54C365.308 587.828 365.952 588.096 366.896 588.344L369.692 589.028C371.268 589.404 372.404 590.048 373.1 590.96C373.804 591.872 374.156 592.98 374.156 594.284C374.156 595.284 373.88 596.156 373.328 596.9C372.784 597.644 372.012 598.22 371.012 598.628C370.012 599.036 368.836 599.24 367.484 599.24ZM365.984 579.164H369.02V582.284H365.984V579.164ZM365.924 598.172H368.948V601.292H365.924V598.172ZM376.5 586.988C376.5 585.74 376.792 584.704 377.376 583.88C377.968 583.056 378.764 582.44 379.764 582.032C380.764 581.616 381.876 581.408 383.1 581.408C384.396 581.408 385.548 581.576 386.556 581.912C387.572 582.248 388.372 582.76 388.956 583.448C389.54 584.136 389.832 585.008 389.832 586.064C389.832 586.92 389.584 587.676 389.088 588.332C388.592 588.98 387.784 589.496 386.664 589.88C387.304 590.056 387.896 590.324 388.44 590.684C388.984 591.044 389.42 591.504 389.748 592.064C390.076 592.624 390.24 593.296 390.24 594.08C390.24 594.928 390.052 595.676 389.676 596.324C389.3 596.972 388.78 597.516 388.116 597.956C387.452 598.396 386.684 598.724 385.812 598.94C384.94 599.156 384.008 599.264 383.016 599.264C381.624 599.256 380.436 599.028 379.452 598.58C378.476 598.124 377.724 597.476 377.196 596.636C376.676 595.796 376.408 594.796 376.392 593.636H379.764C379.932 594.62 380.316 595.332 380.916 595.772C381.516 596.212 382.228 596.432 383.052 596.432C383.772 596.432 384.388 596.328 384.9 596.12C385.42 595.912 385.816 595.624 386.088 595.256C386.368 594.88 386.508 594.452 386.508 593.972C386.508 593.476 386.364 593.048 386.076 592.688C385.796 592.328 385.404 592.048 384.9 591.848C384.396 591.64 383.82 591.528 383.172 591.512L381.516 591.452V588.668L383.004 588.584C383.628 588.56 384.172 588.444 384.636 588.236C385.1 588.028 385.46 587.752 385.716 587.408C385.98 587.056 386.112 586.66 386.112 586.22C386.112 585.796 385.98 585.428 385.716 585.116C385.452 584.804 385.088 584.56 384.624 584.384C384.16 584.208 383.628 584.12 383.028 584.12C382.476 584.12 381.968 584.212 381.504 584.396C381.04 584.58 380.66 584.884 380.364 585.308C380.068 585.724 379.896 586.284 379.848 586.988H376.5ZM394.165 581.648H405.313L405.181 584.516H396.937L396.601 588.704C397.241 588.344 397.849 588.084 398.425 587.924C399.009 587.764 399.649 587.684 400.345 587.684C401.505 587.684 402.541 587.904 403.453 588.344C404.373 588.776 405.101 589.412 405.637 590.252C406.173 591.092 406.441 592.116 406.441 593.324C406.441 594.548 406.165 595.604 405.613 596.492C405.061 597.38 404.277 598.064 403.261 598.544C402.253 599.024 401.057 599.264 399.673 599.264C398.537 599.264 397.481 599.088 396.505 598.736C395.529 598.384 394.685 597.904 393.973 597.296C393.261 596.68 392.721 595.976 392.353 595.184L395.089 593.564C395.401 594.108 395.753 594.6 396.145 595.04C396.537 595.472 396.989 595.816 397.501 596.072C398.021 596.32 398.625 596.444 399.313 596.444C400.353 596.444 401.189 596.168 401.821 595.616C402.453 595.064 402.769 594.344 402.769 593.456C402.769 592.896 402.625 592.396 402.337 591.956C402.057 591.508 401.669 591.156 401.173 590.9C400.677 590.644 400.097 590.516 399.433 590.516C399.081 590.516 398.745 590.548 398.425 590.612C398.113 590.668 397.793 590.78 397.465 590.948C397.145 591.108 396.789 591.34 396.397 591.644C396.285 591.692 396.205 591.716 396.157 591.716C396.117 591.716 396.037 591.688 395.917 591.632L393.373 590.456L394.165 581.648ZM408.62 602.36L410.012 599.096L408.788 598.988V595.592H412.328V598.58L409.916 602.36H408.62ZM418.276 599V586.004H415.18V584.024C416.172 584.024 416.972 583.932 417.58 583.748C418.196 583.556 418.656 583.284 418.96 582.932C419.264 582.572 419.444 582.144 419.5 581.648H421.828V599H418.276ZM433.354 581.648H436.798V592.22H439.474V595.16H436.798V599H433.426L433.438 595.16H425.446V592.28L433.354 581.648ZM428.686 592.22H433.438V585.86L428.686 592.22ZM447.916 581.408C449.98 581.408 451.608 582.18 452.8 583.724C453.992 585.26 454.588 587.472 454.588 590.36C454.588 593.232 454 595.436 452.824 596.972C451.648 598.5 450.012 599.264 447.916 599.264C445.812 599.264 444.168 598.5 442.984 596.972C441.808 595.444 441.22 593.244 441.22 590.372C441.22 588.452 441.492 586.824 442.036 585.488C442.58 584.152 443.352 583.14 444.352 582.452C445.352 581.756 446.54 581.408 447.916 581.408ZM447.916 596.396C448.948 596.396 449.704 595.936 450.184 595.016C450.664 594.088 450.904 592.54 450.904 590.372C450.904 588.156 450.66 586.568 450.172 585.608C449.684 584.648 448.928 584.168 447.904 584.168C446.88 584.168 446.116 584.652 445.612 585.62C445.116 586.588 444.868 588.172 444.868 590.372C444.868 592.532 445.116 594.076 445.612 595.004C446.108 595.932 446.876 596.396 447.916 596.396Z" fill="white"/>
<path d="M219.944 366.648H223.436V384H219.944V366.648ZM226.883 384V371.592H230.327V373.344C230.519 373.04 230.767 372.748 231.071 372.468C231.383 372.18 231.775 371.944 232.247 371.76C232.719 371.576 233.279 371.484 233.927 371.484C234.687 371.484 235.395 371.632 236.051 371.928C236.715 372.224 237.251 372.692 237.659 373.332C238.067 373.964 238.271 374.792 238.271 375.816V384H234.767V376.248C234.767 375.576 234.567 375.072 234.167 374.736C233.767 374.4 233.279 374.232 232.703 374.232C232.319 374.232 231.947 374.3 231.587 374.436C231.235 374.572 230.947 374.776 230.723 375.048C230.499 375.32 230.387 375.656 230.387 376.056V384H226.883ZM246.425 371.352C247.465 371.352 248.361 371.564 249.113 371.988C249.873 372.412 250.469 372.984 250.901 373.704C251.341 374.424 251.593 375.228 251.657 376.116H248.741C248.685 375.788 248.569 375.464 248.393 375.144C248.217 374.816 247.969 374.548 247.649 374.34C247.329 374.124 246.929 374.016 246.449 374.016C245.633 374.016 244.969 374.332 244.457 374.964C243.953 375.588 243.701 376.54 243.701 377.82C243.701 379.028 243.949 379.988 244.445 380.7C244.941 381.404 245.633 381.756 246.521 381.756C246.993 381.756 247.385 381.64 247.697 381.408C248.017 381.176 248.265 380.9 248.441 380.58C248.617 380.252 248.729 379.948 248.777 379.668H251.621C251.565 380.524 251.317 381.3 250.877 381.996C250.437 382.684 249.837 383.232 249.077 383.64C248.325 384.04 247.441 384.24 246.425 384.24C245.273 384.24 244.245 383.984 243.341 383.472C242.437 382.96 241.725 382.228 241.205 381.276C240.693 380.316 240.437 379.172 240.437 377.844C240.437 376.564 240.685 375.436 241.181 374.46C241.677 373.484 242.373 372.724 243.269 372.18C244.173 371.628 245.225 371.352 246.425 371.352ZM254.07 384V371.592H257.442V374.532C257.642 373.9 257.922 373.348 258.282 372.876C258.65 372.396 259.094 372.024 259.614 371.76C260.134 371.488 260.722 371.352 261.378 371.352C261.49 371.352 261.594 371.36 261.69 371.376C261.794 371.384 261.87 371.4 261.918 371.424V374.76C261.846 374.728 261.758 374.708 261.654 374.7C261.558 374.692 261.47 374.684 261.39 374.676C260.702 374.62 260.114 374.64 259.626 374.736C259.138 374.832 258.742 374.996 258.438 375.228C258.134 375.46 257.914 375.744 257.778 376.08C257.642 376.416 257.574 376.792 257.574 377.208V384H254.07ZM266.653 378.6C266.645 379.232 266.745 379.784 266.953 380.256C267.161 380.72 267.461 381.08 267.853 381.336C268.253 381.584 268.733 381.708 269.293 381.708C269.893 381.708 270.417 381.58 270.865 381.324C271.321 381.068 271.637 380.648 271.813 380.064H274.969C274.833 380.944 274.481 381.696 273.913 382.32C273.353 382.944 272.673 383.42 271.873 383.748C271.073 384.076 270.241 384.24 269.377 384.24C268.153 384.24 267.073 383.984 266.137 383.472C265.209 382.952 264.485 382.22 263.965 381.276C263.445 380.332 263.185 379.22 263.185 377.94C263.185 376.7 263.421 375.584 263.893 374.592C264.365 373.592 265.049 372.804 265.945 372.228C266.849 371.644 267.933 371.352 269.197 371.352C270.461 371.352 271.521 371.62 272.377 372.156C273.241 372.684 273.889 373.424 274.321 374.376C274.761 375.32 274.981 376.412 274.981 377.652V378.6H266.653ZM266.641 376.512H271.705C271.705 376.016 271.613 375.56 271.429 375.144C271.245 374.728 270.965 374.4 270.589 374.16C270.221 373.92 269.757 373.8 269.197 373.8C268.653 373.8 268.189 373.932 267.805 374.196C267.429 374.452 267.141 374.788 266.941 375.204C266.741 375.62 266.641 376.056 266.641 376.512ZM280.944 384.24C280.152 384.24 279.44 384.092 278.808 383.796C278.176 383.5 277.676 383.072 277.308 382.512C276.94 381.944 276.756 381.256 276.756 380.448C276.756 379.088 277.264 378.056 278.28 377.352C279.296 376.64 280.9 376.272 283.092 376.248L284.64 376.224V375.48C284.64 374.912 284.472 374.476 284.136 374.172C283.808 373.86 283.296 373.708 282.6 373.716C282.088 373.724 281.6 373.844 281.136 374.076C280.68 374.308 280.368 374.712 280.2 375.288H277.284C277.332 374.392 277.592 373.656 278.064 373.08C278.536 372.496 279.176 372.064 279.984 371.784C280.8 371.496 281.724 371.352 282.756 371.352C284.028 371.352 285.048 371.512 285.816 371.832C286.584 372.144 287.14 372.596 287.484 373.188C287.828 373.772 288 374.468 288 375.276V384H285.072L284.784 381.864C284.36 382.76 283.828 383.38 283.188 383.724C282.556 384.068 281.808 384.24 280.944 384.24ZM282.12 381.936C282.44 381.936 282.748 381.88 283.044 381.768C283.348 381.648 283.616 381.492 283.848 381.3C284.088 381.1 284.28 380.876 284.424 380.628C284.568 380.38 284.64 380.124 284.64 379.86V378.024L283.38 378.048C282.796 378.056 282.252 378.128 281.748 378.264C281.244 378.392 280.836 378.604 280.524 378.9C280.22 379.196 280.068 379.596 280.068 380.1C280.068 380.676 280.268 381.128 280.668 381.456C281.068 381.776 281.552 381.936 282.12 381.936ZM295.869 384.24C295.005 384.24 294.173 384.1 293.373 383.82C292.573 383.532 291.897 383.084 291.345 382.476C290.793 381.86 290.441 381.064 290.289 380.088H293.325C293.429 380.528 293.617 380.876 293.889 381.132C294.169 381.388 294.485 381.572 294.837 381.684C295.189 381.788 295.525 381.84 295.845 381.84C296.517 381.84 297.057 381.736 297.465 381.528C297.881 381.312 298.089 380.984 298.089 380.544C298.089 380.208 297.965 379.94 297.717 379.74C297.477 379.54 297.077 379.388 296.517 379.284L294.333 378.828C293.237 378.596 292.357 378.204 291.693 377.652C291.029 377.092 290.689 376.3 290.673 375.276C290.673 374.532 290.869 373.864 291.261 373.272C291.661 372.68 292.249 372.212 293.025 371.868C293.801 371.524 294.753 371.352 295.881 371.352C297.409 371.352 298.629 371.688 299.541 372.36C300.461 373.032 300.929 373.98 300.945 375.204H298.017C297.929 374.724 297.689 374.356 297.297 374.1C296.913 373.836 296.429 373.704 295.845 373.704C295.237 373.704 294.737 373.812 294.345 374.028C293.953 374.244 293.757 374.572 293.757 375.012C293.757 375.34 293.917 375.6 294.237 375.792C294.557 375.976 295.053 376.136 295.725 376.272L297.741 376.728C298.437 376.896 299.001 377.128 299.433 377.424C299.873 377.712 300.213 378.028 300.453 378.372C300.693 378.716 300.857 379.064 300.945 379.416C301.041 379.76 301.089 380.072 301.089 380.352C301.089 381.176 300.869 381.88 300.429 382.464C299.989 383.04 299.377 383.48 298.593 383.784C297.809 384.088 296.901 384.24 295.869 384.24ZM306.427 378.6C306.419 379.232 306.519 379.784 306.727 380.256C306.935 380.72 307.235 381.08 307.627 381.336C308.027 381.584 308.507 381.708 309.067 381.708C309.667 381.708 310.191 381.58 310.639 381.324C311.095 381.068 311.411 380.648 311.587 380.064H314.743C314.607 380.944 314.255 381.696 313.687 382.32C313.127 382.944 312.447 383.42 311.647 383.748C310.847 384.076 310.015 384.24 309.151 384.24C307.927 384.24 306.847 383.984 305.911 383.472C304.983 382.952 304.259 382.22 303.739 381.276C303.219 380.332 302.959 379.22 302.959 377.94C302.959 376.7 303.195 375.584 303.667 374.592C304.139 373.592 304.823 372.804 305.719 372.228C306.623 371.644 307.707 371.352 308.971 371.352C310.235 371.352 311.295 371.62 312.151 372.156C313.015 372.684 313.663 373.424 314.095 374.376C314.535 375.32 314.755 376.412 314.755 377.652V378.6H306.427ZM306.415 376.512H311.479C311.479 376.016 311.387 375.56 311.203 375.144C311.019 374.728 310.739 374.4 310.363 374.16C309.995 373.92 309.531 373.8 308.971 373.8C308.427 373.8 307.963 373.932 307.579 374.196C307.203 374.452 306.915 374.788 306.715 375.204C306.515 375.62 306.415 376.056 306.415 376.512ZM329.693 374.028H326.933L326.957 380.64C326.957 380.944 326.993 381.172 327.065 381.324C327.145 381.468 327.265 381.564 327.425 381.612C327.593 381.652 327.805 381.672 328.061 381.672H329.729V383.832C329.569 383.904 329.317 383.972 328.973 384.036C328.637 384.1 328.165 384.132 327.557 384.132C326.469 384.132 325.625 383.992 325.025 383.712C324.433 383.432 324.021 383.04 323.789 382.536C323.557 382.032 323.441 381.448 323.441 380.784V374.028H321.425V371.592H323.561L324.437 367.848H326.933V371.58H329.693V374.028ZM332.281 384V366.168H335.761V373.38C335.961 373.092 336.213 372.808 336.517 372.528C336.821 372.24 337.201 372 337.657 371.808C338.113 371.616 338.669 371.52 339.325 371.52C340.117 371.52 340.837 371.676 341.485 371.988C342.141 372.292 342.665 372.736 343.057 373.32C343.457 373.904 343.657 374.616 343.657 375.456V384H340.141V375.972C340.141 375.412 339.937 374.984 339.529 374.688C339.129 374.384 338.641 374.232 338.065 374.232C337.689 374.232 337.325 374.3 336.973 374.436C336.621 374.572 336.333 374.78 336.109 375.06C335.893 375.332 335.785 375.672 335.785 376.08V384H332.281ZM350.036 371.592V384H346.688V371.592H350.036ZM350.072 366.66V369.816H346.664V366.66H350.072ZM358.119 384.24C357.255 384.24 356.423 384.1 355.623 383.82C354.823 383.532 354.147 383.084 353.595 382.476C353.043 381.86 352.691 381.064 352.539 380.088H355.575C355.679 380.528 355.867 380.876 356.139 381.132C356.419 381.388 356.735 381.572 357.087 381.684C357.439 381.788 357.775 381.84 358.095 381.84C358.767 381.84 359.307 381.736 359.715 381.528C360.131 381.312 360.339 380.984 360.339 380.544C360.339 380.208 360.215 379.94 359.967 379.74C359.727 379.54 359.327 379.388 358.767 379.284L356.583 378.828C355.487 378.596 354.607 378.204 353.943 377.652C353.279 377.092 352.939 376.3 352.923 375.276C352.923 374.532 353.119 373.864 353.511 373.272C353.911 372.68 354.499 372.212 355.275 371.868C356.051 371.524 357.003 371.352 358.131 371.352C359.659 371.352 360.879 371.688 361.791 372.36C362.711 373.032 363.179 373.98 363.195 375.204H360.267C360.179 374.724 359.939 374.356 359.547 374.1C359.163 373.836 358.679 373.704 358.095 373.704C357.487 373.704 356.987 373.812 356.595 374.028C356.203 374.244 356.007 374.572 356.007 375.012C356.007 375.34 356.167 375.6 356.487 375.792C356.807 375.976 357.303 376.136 357.975 376.272L359.991 376.728C360.687 376.896 361.251 377.128 361.683 377.424C362.123 377.712 362.463 378.028 362.703 378.372C362.943 378.716 363.107 379.064 363.195 379.416C363.291 379.76 363.339 380.072 363.339 380.352C363.339 381.176 363.119 381.88 362.679 382.464C362.239 383.04 361.627 383.48 360.843 383.784C360.059 384.088 359.151 384.24 358.119 384.24ZM370.719 384V371.592H374.151V373.344C374.527 372.8 375.031 372.332 375.663 371.94C376.303 371.548 377.107 371.352 378.075 371.352C378.499 371.352 378.931 371.428 379.371 371.58C379.811 371.732 380.223 371.956 380.607 372.252C380.999 372.54 381.315 372.904 381.555 373.344C381.955 372.776 382.479 372.304 383.127 371.928C383.783 371.544 384.511 371.352 385.311 371.352C385.775 371.352 386.243 371.428 386.715 371.58C387.195 371.732 387.635 371.98 388.035 372.324C388.435 372.668 388.755 373.128 388.995 373.704C389.243 374.272 389.367 374.976 389.367 375.816V384H385.863V376.248C385.863 375.752 385.763 375.356 385.563 375.06C385.371 374.756 385.123 374.54 384.819 374.412C384.523 374.276 384.207 374.208 383.871 374.208C383.559 374.208 383.243 374.272 382.923 374.4C382.603 374.52 382.331 374.716 382.107 374.988C381.883 375.26 381.771 375.616 381.771 376.056V384H378.279V375.936C378.279 375.56 378.179 375.244 377.979 374.988C377.779 374.732 377.527 374.54 377.223 374.412C376.927 374.276 376.623 374.208 376.311 374.208C375.991 374.208 375.671 374.276 375.351 374.412C375.031 374.54 374.763 374.744 374.547 375.024C374.331 375.296 374.223 375.64 374.223 376.056V384H370.719ZM397.539 384.24C396.323 384.24 395.263 383.98 394.359 383.46C393.463 382.94 392.767 382.204 392.271 381.252C391.783 380.3 391.539 379.172 391.539 377.868C391.539 376.564 391.783 375.424 392.271 374.448C392.767 373.472 393.463 372.712 394.359 372.168C395.263 371.624 396.327 371.352 397.551 371.352C398.775 371.352 399.835 371.62 400.731 372.156C401.627 372.684 402.319 373.436 402.807 374.412C403.295 375.388 403.539 376.54 403.539 377.868C403.539 379.116 403.299 380.22 402.819 381.18C402.347 382.132 401.663 382.88 400.767 383.424C399.879 383.968 398.803 384.24 397.539 384.24ZM397.551 381.636C398.167 381.636 398.663 381.456 399.039 381.096C399.415 380.736 399.687 380.264 399.855 379.68C400.031 379.088 400.119 378.444 400.119 377.748C400.119 377.092 400.039 376.472 399.879 375.888C399.727 375.304 399.463 374.832 399.087 374.472C398.711 374.112 398.199 373.932 397.551 373.932C396.935 373.932 396.435 374.104 396.051 374.448C395.675 374.784 395.399 375.244 395.223 375.828C395.047 376.404 394.959 377.044 394.959 377.748C394.959 378.396 395.039 379.02 395.199 379.62C395.359 380.212 395.627 380.696 396.003 381.072C396.379 381.448 396.895 381.636 397.551 381.636ZM405.875 384V371.592H409.319V373.344C409.511 373.04 409.759 372.748 410.063 372.468C410.375 372.18 410.767 371.944 411.239 371.76C411.711 371.576 412.271 371.484 412.919 371.484C413.679 371.484 414.387 371.632 415.043 371.928C415.707 372.224 416.243 372.692 416.651 373.332C417.059 373.964 417.263 374.792 417.263 375.816V384H413.759V376.248C413.759 375.576 413.559 375.072 413.159 374.736C412.759 374.4 412.271 374.232 411.695 374.232C411.311 374.232 410.939 374.3 410.579 374.436C410.227 374.572 409.939 374.776 409.715 375.048C409.491 375.32 409.379 375.656 409.379 376.056V384H405.875ZM427.123 374.028H424.363L424.387 380.64C424.387 380.944 424.423 381.172 424.495 381.324C424.575 381.468 424.695 381.564 424.855 381.612C425.023 381.652 425.235 381.672 425.491 381.672H427.159V383.832C426.999 383.904 426.747 383.972 426.403 384.036C426.067 384.1 425.595 384.132 424.987 384.132C423.899 384.132 423.055 383.992 422.455 383.712C421.863 383.432 421.451 383.04 421.219 382.536C420.987 382.032 420.871 381.448 420.871 380.784V374.028H418.854V371.592H420.991L421.867 367.848H424.363V371.58H427.123V374.028ZM429.711 384V366.168H433.191V373.38C433.391 373.092 433.643 372.808 433.947 372.528C434.251 372.24 434.631 372 435.087 371.808C435.543 371.616 436.099 371.52 436.755 371.52C437.547 371.52 438.267 371.676 438.915 371.988C439.571 372.292 440.095 372.736 440.487 373.32C440.887 373.904 441.087 374.616 441.087 375.456V384H437.571V375.972C437.571 375.412 437.367 374.984 436.959 374.688C436.559 374.384 436.071 374.232 435.495 374.232C435.119 374.232 434.755 374.3 434.403 374.436C434.051 374.572 433.763 374.78 433.539 375.06C433.323 375.332 433.215 375.672 433.215 376.08V384H429.711Z" fill="white"/>
</g>
<defs>
<filter id="filter0_f_5_3" x="91" y="0" width="1100" height="1100" filterUnits="userSpaceOnUse" color-interpolation-filters="sRGB">
<feFlood flood-opacity="0" result="BackgroundImageFix"/>
<feBlend mode="normal" in="SourceGraphic" in2="BackgroundImageFix" result="shape"/>
<feGaussianBlur stdDeviation="100" result="effect1_foregroundBlur_5_3"/>
</filter>
<filter id="filter1_b_5_3" x="453" y="486" width="768" height="448" filterUnits="userSpaceOnUse" color-interpolation-filters="sRGB">
<feFlood flood-opacity="0" result="BackgroundImageFix"/>
<feGaussianBlur in="BackgroundImageFix" stdDeviation="32"/>
<feComposite in2="SourceAlpha" operator="in" result="effect1_backgroundBlur_5_3"/>
<feBlend mode="normal" in="SourceGraphic" in2="effect1_backgroundBlur_5_3" result="shape"/>
</filter>
<filter id="filter2_b_5_3" x="-63.5" y="68.5" width="609" height="641" filterUnits="userSpaceOnUse" color-interpolation-filters="sRGB">
<feFlood flood-opacity="0" result="BackgroundImageFix"/>
<feGaussianBlur in="BackgroundImageFix" stdDeviation="32"/>
<feComposite in2="SourceAlpha" operator="in" result="effect1_backgroundBlur_5_3"/>
<feBlend mode="normal" in="SourceGraphic" in2="effect1_backgroundBlur_5_3" result="shape"/>
</filter>
<linearGradient id="paint0_linear_5_3" x1="640" y1="320" x2="0" y2="0" gradientUnits="userSpaceOnUse">
<stop stop-color="#093488" stop-opacity="1"/>
<stop offset="1" stop-color="#EEEEEE" stop-opacity="0.1"/>
</linearGradient>
<linearGradient id="paint1_linear_5_3" x1="640" y1="320" x2="0" y2="0" gradientUnits="userSpaceOnUse">
<stop stop-color="#093488" stop-opacity="1"/>
<stop offset="1" stop-color="#CCCCCC" stop-opacity="0.5"/>
</linearGradient>
<linearGradient id="paint2_linear_5_3" x1="442" y1="-1.59998" x2="399.937" y2="698.566" gradientUnits="userSpaceOnUse">
<stop stop-color="#093488" stop-opacity="1"/>
<stop offset="1" stop-color="#EEEEEE" stop-opacity="0.75"/>
</linearGradient>
<linearGradient id="paint3_linear_5_3" x1="434.5" y1="442.5" x2="42.5114" y2="-212.753" gradientUnits="userSpaceOnUse">
<stop offset="0.0629487" stop-color="#093488" stop-opacity="0.5"/>
<stop offset="0.936991" stop-color="#EEEEEE" stop-opacity="0.1"/>
</linearGradient>
</defs>
</svg>
