<svg width="906" height="906" viewBox="0 0 906 906" fill="none" xmlns="http://www.w3.org/2000/svg">
<mask id="path-1-inside-1_70_2" fill="white">
<path fill-rule="evenodd" clip-rule="evenodd" d="M443.58 775.96L441.077 702.534L446.151 608.329L553.62 501.974L552.651 399.904L444.976 504.587L444.963 448.387L569.87 324.301L549.265 229.486L359.336 419.416L361.877 673.473L356.155 670.746C331.076 658.34 308.2 641.91 288.435 622.107C192.057 525.729 189.165 372.361 281.987 279.539C339.552 221.973 420.41 201.202 496.503 216.764L560.703 152.564C445.762 109.075 313.664 131.797 223.954 221.507C100.28 345.181 104.126 549.583 232.543 678C288.918 734.827 363.796 769.569 443.609 775.931"/>
</mask>
<path d="M441.077 702.534L433.088 702.104L433.069 702.455L433.081 702.807L441.077 702.534ZM446.151 608.329L440.523 602.642L438.328 604.815L438.162 607.898L446.151 608.329ZM553.62 501.974L559.248 507.66L561.652 505.28L561.62 501.898L553.62 501.974ZM552.651 399.904L560.651 399.828L560.473 381.142L547.075 394.168L552.651 399.904ZM444.976 504.587L436.976 504.589L436.981 523.517L450.553 510.323L444.976 504.587ZM444.963 448.387L439.325 442.711L436.962 445.058L436.963 448.389L444.963 448.387ZM569.87 324.301L575.508 329.977L578.618 326.887L577.687 322.602L569.87 324.301ZM549.265 229.486L557.083 227.787L553.971 213.467L543.608 223.829L549.265 229.486ZM359.336 419.416L353.679 413.759L351.303 416.135L351.336 419.496L359.336 419.416ZM361.877 673.473L358.434 680.695L370.005 686.21L369.876 673.393L361.877 673.473ZM356.155 670.746L352.608 677.916L352.66 677.942L352.712 677.967L356.155 670.746ZM288.435 622.107L294.097 616.456L294.092 616.45L288.435 622.107ZM496.503 216.764L494.9 224.602L499.116 225.465L502.159 222.421L496.503 216.764ZM560.703 152.564L566.36 158.221L575.116 149.464L563.534 145.082L560.703 152.564ZM232.543 678L238.222 672.365L238.211 672.354L238.199 672.343L232.543 678ZM451.575 775.688L449.072 702.262L433.081 702.807L435.585 776.233L451.575 775.688ZM449.065 702.965L454.139 608.759L438.162 607.898L433.088 702.104L449.065 702.965ZM451.778 614.015L559.248 507.66L547.993 496.287L440.523 602.642L451.778 614.015ZM561.62 501.898L560.651 399.828L544.652 399.98L545.621 502.05L561.62 501.898ZM547.075 394.168L439.4 498.851L450.553 510.323L558.228 405.64L547.075 394.168ZM452.976 504.585L452.963 448.385L436.963 448.389L436.976 504.589L452.976 504.585ZM450.601 454.062L575.508 329.977L564.232 318.626L439.325 442.711L450.601 454.062ZM577.687 322.602L557.083 227.787L541.448 231.185L562.052 326L577.687 322.602ZM543.608 223.829L353.679 413.759L364.993 425.073L554.922 235.143L543.608 223.829ZM351.336 419.496L353.877 673.553L369.876 673.393L367.336 419.336L351.336 419.496ZM365.319 666.252L359.597 663.524L352.712 677.967L358.434 680.695L365.319 666.252ZM359.702 663.575C335.406 651.557 313.245 635.64 294.097 616.456L282.773 627.758C303.155 648.18 326.745 665.123 352.608 677.916L359.702 663.575ZM294.092 616.45C200.635 522.993 198.145 374.695 287.643 285.196L276.33 273.882C180.185 370.027 183.478 528.464 282.778 627.764L294.092 616.45ZM287.643 285.196C343.173 229.667 421.244 209.539 494.9 224.602L498.106 208.927C419.575 192.866 335.932 214.28 276.33 273.882L287.643 285.196ZM502.159 222.421L566.36 158.221L555.046 146.907L490.846 211.108L502.159 222.421ZM563.534 145.082C445.877 100.565 310.398 123.75 218.297 215.85L229.611 227.164C316.931 139.844 445.647 117.584 557.872 160.047L563.534 145.082ZM218.297 215.85C91.3 342.847 95.5474 552.318 226.886 683.657L238.199 672.343C112.704 546.848 109.26 347.515 229.611 227.164L218.297 215.85ZM226.863 683.634C284.587 741.82 361.254 777.392 442.974 783.906L444.245 767.956C366.339 761.746 293.25 727.834 238.222 672.365L226.863 683.634Z" fill="#1B1B1B" mask="url(#path-1-inside-1_70_2)"/>
<mask id="path-3-inside-2_70_2" fill="white">
<path fill-rule="evenodd" clip-rule="evenodd" d="M632.165 298.396C719.854 386.085 719.268 536.104 622.925 625.17L608.31 638.728L630.702 654.077L644.466 664.143L669.146 684.363C798.71 561.549 807.335 361.875 688.011 242.55C666.391 220.902 641.418 202.886 614.057 189.197L554.454 248.799C583.664 259.469 610.187 276.396 632.165 298.396"/>
</mask>
<path d="M622.925 625.17L617.494 619.296L617.484 619.305L622.925 625.17ZM608.31 638.728L602.869 632.863L595.533 639.669L603.787 645.327L608.31 638.728ZM630.702 654.077L635.424 647.619L635.326 647.547L635.225 647.478L630.702 654.077ZM644.466 664.143L649.536 657.954L649.366 657.815L649.188 657.685L644.466 664.143ZM669.146 684.363L664.076 690.551L669.532 695.02L674.65 690.169L669.146 684.363ZM688.011 242.55L682.35 248.203L682.354 248.207L688.011 242.55ZM614.057 189.197L617.636 182.043L612.478 179.462L608.4 183.54L614.057 189.197ZM554.454 248.799L548.798 243.142L539.929 252.011L551.71 256.314L554.454 248.799ZM626.508 304.053C710.975 388.519 710.514 533.302 617.494 619.296L628.355 631.044C728.023 538.906 728.732 383.65 637.822 292.739L626.508 304.053ZM617.484 619.305L602.869 632.863L613.751 644.593L628.366 631.035L617.484 619.305ZM603.787 645.327L626.179 660.675L635.225 647.478L612.833 632.129L603.787 645.327ZM625.979 660.534L639.743 670.6L649.188 657.685L635.424 647.619L625.979 660.534ZM639.396 670.331L664.076 690.551L674.216 678.174L649.536 657.954L639.396 670.331ZM674.65 690.169C807.149 564.572 816.49 359.715 693.668 236.893L682.354 248.207C798.181 364.034 790.27 558.526 663.643 678.557L674.65 690.169ZM693.671 236.897C671.443 214.64 645.768 196.117 617.636 182.043L610.477 196.352C637.069 209.656 661.339 227.165 682.35 248.203L693.671 236.897ZM608.4 183.54L548.798 243.142L560.111 254.456L619.714 194.854L608.4 183.54ZM551.71 256.314C579.823 266.583 605.351 282.876 626.505 304.05L637.824 292.742C615.022 269.917 587.504 252.355 557.199 241.285L551.71 256.314Z" fill="#1B1B1B" mask="url(#path-3-inside-2_70_2)"/>
<path d="M545.205 699.693C549.363 692.843 552.829 686.848 555.765 681.732C556.2 680.973 556.623 680.236 557.034 679.519C559.41 675.374 561.393 671.913 563.126 669.075C565.186 665.702 566.729 663.485 567.974 662.155C568.521 661.569 568.886 661.29 569.089 661.161C569.317 661.318 569.774 661.694 570.479 662.559C571.755 664.127 573.294 666.609 575.303 670.251C576.93 673.199 578.778 676.74 580.968 680.939C581.455 681.874 581.96 682.842 582.483 683.843C585.343 689.314 588.716 695.714 592.768 703.037C596.819 710.359 600.444 716.619 603.549 721.947C604.009 722.736 604.457 723.503 604.892 724.249C607.41 728.562 609.516 732.172 611.197 735.227C613.191 738.852 614.439 741.44 615.047 743.299C615.305 744.087 615.393 744.582 615.422 744.866C615.162 744.959 614.701 745.085 613.931 745.188C612.031 745.443 609.208 745.437 605.137 745.207C601.811 745.019 597.856 744.696 593.154 744.313C592.169 744.233 591.151 744.15 590.099 744.065C584.056 743.577 576.971 743.03 568.776 742.568C560.584 742.107 553.505 741.849 547.472 741.643C546.752 741.619 546.047 741.595 545.359 741.572C540.253 741.399 536.006 741.256 532.482 741.039C528.436 740.789 525.636 740.455 523.756 739.964C522.593 739.66 522.1 739.377 521.92 739.249C521.918 739.034 521.965 738.496 522.344 737.439C522.982 735.657 524.265 733.216 526.318 729.808C528.04 726.947 530.189 723.589 532.756 719.577C533.213 718.864 533.682 718.13 534.165 717.375C537.347 712.396 541.059 706.547 545.205 699.693ZM569.287 661.057C569.287 661.058 569.283 661.059 569.274 661.061C569.283 661.058 569.287 661.057 569.287 661.057ZM521.93 739.366C521.93 739.366 521.93 739.366 521.929 739.364L521.93 739.366Z" stroke="#1B1B1B" stroke-width="8"/>
</svg>
