<svg width="907" height="907" viewBox="0 0 907 907" fill="none" xmlns="http://www.w3.org/2000/svg">
<path fill-rule="evenodd" clip-rule="evenodd" d="M444.168 779.186L441.665 705.76L446.739 611.554L554.208 505.199L553.239 403.13L445.564 507.812L445.551 451.613L570.458 327.527L549.853 232.712L359.924 422.641L362.465 676.699L356.743 673.972C331.664 661.566 308.788 645.135 289.023 625.333C192.645 528.954 189.753 375.587 282.574 282.765C340.14 225.199 420.998 204.428 497.09 219.99L561.291 155.79C446.35 112.3 314.252 135.023 224.542 224.733C100.868 348.407 104.714 552.809 233.13 681.226C289.506 738.053 364.384 772.795 444.197 779.157" fill="white"/>
<path fill-rule="evenodd" clip-rule="evenodd" d="M632.753 296.699C720.441 384.388 719.856 534.408 623.513 623.474L608.898 637.031L631.29 652.38L645.053 662.446L669.734 682.666C799.298 559.852 807.923 360.178 688.599 240.854C666.979 219.206 642.006 201.19 614.645 187.501L555.042 247.103C584.252 257.772 610.775 274.7 632.753 296.699" fill="#1B4CD1"/>
<path fill-rule="evenodd" clip-rule="evenodd" d="M542.372 695.924C575.433 641.451 564.622 641.143 596.856 699.404C629.09 757.665 634.316 748.536 569.139 744.866C503.962 741.195 509.399 750.426 542.372 695.924Z" fill="#1B4CD1"/>
</svg>
