<svg width="906" height="906" viewBox="0 0 906 906" fill="none" xmlns="http://www.w3.org/2000/svg">
<mask id="path-1-inside-1_70_10" fill="white">
<path fill-rule="evenodd" clip-rule="evenodd" d="M443.58 775.96L441.077 702.534L446.151 608.329L553.62 501.974L552.651 399.904L444.976 504.587L444.963 448.387L569.87 324.301L549.265 229.486L359.336 419.416L361.877 673.473L356.155 670.746C331.076 658.34 308.2 641.91 288.435 622.107C192.057 525.729 189.165 372.361 281.987 279.539C339.552 221.973 420.41 201.202 496.503 216.764L560.703 152.564C445.762 109.075 313.664 131.797 223.954 221.507C100.28 345.181 104.126 549.583 232.543 678C288.918 734.827 363.796 769.569 443.609 775.931"/>
</mask>
<path d="M441.077 702.534L437.082 702.319L437.073 702.495L437.079 702.671L441.077 702.534ZM446.151 608.329L443.337 605.485L442.24 606.572L442.156 608.113L446.151 608.329ZM553.62 501.974L556.434 504.817L557.636 503.627L557.62 501.936L553.62 501.974ZM552.651 399.904L556.651 399.866L556.562 390.523L549.863 397.036L552.651 399.904ZM444.976 504.587L440.976 504.588L440.979 514.052L447.765 507.455L444.976 504.587ZM444.963 448.387L442.144 445.549L440.962 446.723L440.963 448.388L444.963 448.387ZM569.87 324.301L572.689 327.139L574.244 325.594L573.779 323.452L569.87 324.301ZM549.265 229.486L553.174 228.637L551.618 221.477L546.437 226.658L549.265 229.486ZM359.336 419.416L356.508 416.587L355.319 417.775L355.336 419.456L359.336 419.416ZM361.877 673.473L360.156 677.084L365.941 679.842L365.877 673.433L361.877 673.473ZM356.155 670.746L354.381 674.331L354.407 674.344L354.434 674.356L356.155 670.746ZM288.435 622.107L291.266 619.281L291.264 619.279L288.435 622.107ZM496.503 216.764L495.701 220.683L497.809 221.114L499.331 219.593L496.503 216.764ZM560.703 152.564L563.531 155.393L567.91 151.014L562.118 148.823L560.703 152.564ZM232.543 678L235.382 675.183L235.377 675.177L235.371 675.171L232.543 678ZM447.578 775.824L445.074 702.398L437.079 702.671L439.582 776.097L447.578 775.824ZM445.071 702.749L450.145 608.544L442.156 608.113L437.082 702.319L445.071 702.749ZM448.964 611.172L556.434 504.817L550.807 499.13L443.337 605.485L448.964 611.172ZM557.62 501.936L556.651 399.866L548.651 399.942L549.621 502.012L557.62 501.936ZM549.863 397.036L442.188 501.719L447.765 507.455L555.439 402.772L549.863 397.036ZM448.976 504.586L448.963 448.386L440.963 448.388L440.976 504.588L448.976 504.586ZM447.782 451.224L572.689 327.139L567.051 321.464L442.144 445.549L447.782 451.224ZM573.779 323.452L553.174 228.637L545.357 230.336L565.961 325.151L573.779 323.452ZM546.437 226.658L356.508 416.587L362.164 422.244L552.094 232.315L546.437 226.658ZM355.336 419.456L357.877 673.513L365.877 673.433L363.336 419.376L355.336 419.456ZM363.598 669.863L357.876 667.135L354.434 674.356L360.156 677.084L363.598 669.863ZM357.928 667.16C333.241 654.948 310.722 638.775 291.266 619.281L285.604 624.933C305.677 645.045 328.91 661.732 354.381 674.331L357.928 667.16ZM291.264 619.279C196.346 524.361 193.655 373.528 284.815 282.368L279.158 276.711C184.675 371.194 187.767 527.096 285.607 624.935L291.264 619.279ZM284.815 282.368C341.363 225.82 420.827 205.371 495.701 220.683L497.304 212.846C419.992 197.034 337.742 218.127 279.158 276.711L284.815 282.368ZM499.331 219.593L563.531 155.393L557.874 149.736L493.674 213.936L499.331 219.593ZM562.118 148.823C445.82 104.82 312.031 127.773 221.126 218.678L226.782 224.335C315.297 135.82 445.705 113.33 559.287 156.305L562.118 148.823ZM221.126 218.678C95.7899 344.014 99.8366 550.951 229.714 680.828L235.371 675.171C108.415 548.215 104.77 346.348 226.782 224.335L221.126 218.678ZM229.703 680.817C286.753 738.323 362.525 773.48 443.292 779.918L443.927 771.944C365.067 765.658 291.084 731.331 235.382 675.183L229.703 680.817Z" fill="#1B4CD1" mask="url(#path-1-inside-1_70_10)"/>
<mask id="path-3-inside-2_70_10" fill="white">
<path fill-rule="evenodd" clip-rule="evenodd" d="M632.165 298.396C719.854 386.085 719.268 536.104 622.925 625.17L608.31 638.728L630.702 654.077L644.466 664.143L669.146 684.363C798.71 561.549 807.335 361.875 688.011 242.55C666.391 220.902 641.418 202.886 614.057 189.197L554.454 248.799C583.664 259.469 610.187 276.396 632.165 298.396"/>
</mask>
<path d="M622.925 625.17L620.209 622.233L620.204 622.238L622.925 625.17ZM608.31 638.728L605.59 635.796L601.922 639.198L606.049 642.027L608.31 638.728ZM630.702 654.077L633.063 650.848L633.014 650.812L632.963 650.777L630.702 654.077ZM644.466 664.143L647.001 661.048L646.916 660.979L646.827 660.914L644.466 664.143ZM669.146 684.363L666.611 687.457L669.339 689.692L671.898 687.266L669.146 684.363ZM688.011 242.55L685.181 245.377L685.182 245.378L688.011 242.55ZM614.057 189.197L615.846 185.62L613.267 184.329L611.228 186.369L614.057 189.197ZM554.454 248.799L551.626 245.971L547.192 250.405L553.082 252.556L554.454 248.799ZM629.336 301.224C715.414 387.302 714.891 534.703 620.209 622.233L625.64 628.107C723.646 537.505 724.293 384.867 634.993 295.567L629.336 301.224ZM620.204 622.238L605.59 635.796L611.031 641.66L625.645 628.102L620.204 622.238ZM606.049 642.027L628.44 657.376L632.963 650.777L610.572 635.429L606.049 642.027ZM628.341 657.305L642.104 667.371L646.827 660.914L633.063 650.848L628.341 657.305ZM641.931 667.237L666.611 687.457L671.681 681.269L647.001 661.048L641.931 667.237ZM671.898 687.266C802.93 563.06 811.913 360.795 690.839 239.722L685.182 245.378C802.758 362.954 794.49 560.037 666.394 681.46L671.898 687.266ZM690.841 239.723C668.917 217.771 643.593 199.502 615.846 185.62L612.267 192.774C639.243 206.271 663.865 224.033 685.181 245.377L690.841 239.723ZM611.228 186.369L551.626 245.971L557.283 251.628L616.885 192.025L611.228 186.369ZM553.082 252.556C581.743 263.026 607.769 279.636 629.335 301.223L634.995 295.569C612.604 273.157 585.584 255.912 555.827 245.042L553.082 252.556Z" fill="#1B4CD1" mask="url(#path-3-inside-2_70_10)"/>
<path d="M543.495 698.657C547.64 691.827 551.096 685.848 554.03 680.736C554.464 679.981 554.886 679.245 555.296 678.528C557.671 674.386 559.67 670.897 561.419 668.033C563.484 664.652 565.117 662.28 566.513 660.788C567.948 659.255 568.761 659.049 569.191 659.08C569.685 659.116 570.579 659.514 572.03 661.296C573.429 663.015 575.041 665.635 577.054 669.284C578.694 672.255 580.555 675.823 582.746 680.023C583.232 680.956 583.735 681.921 584.256 682.916C587.112 688.382 590.477 694.766 594.518 702.069C598.558 709.371 602.174 715.616 605.277 720.939C605.736 721.726 606.182 722.491 606.617 723.236C609.133 727.548 611.255 731.184 612.949 734.263C614.948 737.896 616.277 740.625 616.948 742.678C617.648 744.817 617.446 745.668 617.238 746.003C617.037 746.329 616.388 746.876 614.197 747.17C612.092 747.453 609.103 747.434 605.024 747.203C601.671 747.014 597.684 746.689 592.982 746.306C591.999 746.226 590.985 746.143 589.938 746.059C583.901 745.571 576.835 745.025 568.664 744.565C560.494 744.105 553.432 743.847 547.404 743.642C546.684 743.617 545.98 743.594 545.29 743.57C540.192 743.398 535.913 743.254 532.359 743.035C528.301 742.784 525.333 742.443 523.251 741.899C521.115 741.342 520.383 740.69 520.123 740.207C519.869 739.734 519.733 738.795 520.461 736.764C521.172 734.781 522.546 732.195 524.604 728.776C526.342 725.89 528.509 722.504 531.075 718.494C531.53 717.782 531.999 717.05 532.48 716.298C535.659 711.323 539.361 705.49 543.495 698.657Z" stroke="#1B4CD1" stroke-width="4"/>
</svg>
