<svg width="936" height="936" viewBox="0 0 936 936" fill="none" xmlns="http://www.w3.org/2000/svg">
<circle cx="468" cy="468" r="468" fill="#1B4CD1" fill-opacity="0.2"/>
<path fill-rule="evenodd" clip-rule="evenodd" d="M459.168 793.186L456.665 719.76L461.739 625.554L569.208 519.199L568.239 417.13L460.564 521.812L460.551 465.613L585.458 341.527L564.853 246.712L374.924 436.641L377.465 690.699L371.743 687.972C346.664 675.566 323.788 659.135 304.023 639.333C207.645 542.954 204.753 389.587 297.574 296.765C355.14 239.199 435.998 218.428 512.09 233.99L576.291 169.79C461.35 126.3 329.252 149.023 239.542 238.733C115.868 362.407 119.714 566.809 248.13 695.226C304.506 752.053 379.384 786.795 459.197 793.157" fill="white"/>
<path fill-rule="evenodd" clip-rule="evenodd" d="M647.753 310.699C735.441 398.388 734.856 548.408 638.513 637.474L623.898 651.031L646.29 666.38L660.053 676.446L684.734 696.666C814.298 573.852 822.923 374.178 703.599 254.854C681.979 233.206 657.006 215.19 629.645 201.501L570.042 261.103C599.252 271.772 625.775 288.7 647.753 310.699" fill="#1B4CD1"/>
<path fill-rule="evenodd" clip-rule="evenodd" d="M557.372 709.924C590.433 655.451 579.622 655.143 611.856 713.404C644.09 771.665 649.316 762.536 584.139 758.866C518.962 755.195 524.399 764.426 557.372 709.924Z" fill="#1B4CD1"/>
</svg>
