<svg id="Layer_2" data-name="Layer 2" xmlns="http://www.w3.org/2000/svg" viewBox="0 0 200 200"><defs><style>.cls-1{fill:#456fbb;}.cls-2{fill:#69aae0;}.cls-3{fill:#2e388d;}.cls-4{fill:#908e8f;}</style></defs><path class="cls-1" d="M78,6s57.38,87.91-4.43,149.22c0,0,45.31-6.64,91.11,2.22C164.64,157.39,160.21,56.8,78,6Z"/><path class="cls-2" d="M60.48,158.62s19.21-17.48,27.82-40.87c0,0-19.2-48-55.4-67.23,0,0,44.08,67.72-7.63,117.21Z"/><path class="cls-3" d="M15.17,179.55s71.16-32,154.15-13.05c0,0-33.74-2.46-71.66,10.84S30.93,187.92,15.17,179.55Z"/><path class="cls-4" d="M88.3,191.62s44.57-23.86,96.53-18.09c0,0-17,.36-44.32,10.21S110,194.82,88.3,191.62Z"/></svg>