<svg id="Layer_2" data-name="Layer 2" xmlns="http://www.w3.org/2000/svg" viewBox="0 0 200 200"><defs><style>.cls-1{fill:#456fbb;}.cls-2{fill:#69aae0;}.cls-3{fill:#2e388d;}.cls-4{fill:#908e8f;}.cls-5{fill:#fff;}.cls-6{fill:#525252;}</style></defs><path class="cls-1" d="M56.18,21.84s45.17,69.22-3.49,117.49c0,0,35.67-5.23,71.73,1.75C124.42,141.08,120.93,61.88,56.18,21.84Z"/><path class="cls-2" d="M42.41,142.05s15.12-13.77,21.91-32.19c0,0-15.12-37.8-43.62-52.93,0,0,34.7,53.32-6,92.29Z"/><path class="cls-3" d="M6.74,158.53s56-25.21,121.37-10.28a155.08,155.08,0,0,0-56.42,8.53C41.83,167.25,19.15,165.12,6.74,158.53Z"/><path class="cls-4" d="M64.32,168s35.09-18.78,76-14.24c0,0-13.38.28-34.9,8S81.38,170.55,64.32,168Z"/><path class="cls-5" d="M67.88,114.7h7.39c3.58,0,5.16,1.78,5.16,3.86a3.3,3.3,0,0,1-2,3.21,3.5,3.5,0,0,1,2.43,3.36c0,2.43-1.82,4.42-5.52,4.42H67.88Zm6.65,5.73c1.2,0,1.69-.62,1.69-1.42s-.67-1.38-1.72-1.38H72.11v2.8Zm-2.42,6.2h2.22c1.43,0,2-.62,2-1.69s-.58-1.59-2-1.59h-2.3Z"/><path class="cls-5" d="M83,114.7h4.36v11.63h7l-.47,3.22H83Z"/><path class="cls-5" d="M100,114.7v9.13c0,2.13,1,2.86,2.37,2.86s2.26-.87,2.26-2.86V114.7H109v8.69c0,4.94-2.92,6.44-6.71,6.44s-6.64-1.59-6.64-6.42V114.7Z"/><path class="cls-5" d="M122.88,123.54h-6.76v2.79h7.55l-.48,3.22H111.93V114.7h11.24v3.23h-7v2.39h6.76Z"/><path class="cls-3" d="M139.33,124.67c-.55,3.1-2.83,5.16-6.9,5.16-4.86,0-7.21-3.29-7.21-7.59s2.32-7.81,7.42-7.81c4.36,0,6.35,2.53,6.64,5.1H135a2.25,2.25,0,0,0-2.42-2c-2.12,0-2.84,2-2.84,4.6,0,2.36.6,4.68,2.89,4.68a2.33,2.33,0,0,0,2.4-2.09Z"/><path class="cls-3" d="M141.41,114.7h4.36v5.56h4.53V114.7h4.37v14.85H150.3v-6.07h-4.53v6.07h-4.36Z"/><path class="cls-3" d="M162.11,114.7v14.85h-4.36V114.7Z"/><path class="cls-3" d="M165.19,114.7h6.88c3.35,0,5.6,1.87,5.6,4.76,0,3.34-2.56,4.88-5.7,4.88h-2.49v5.21h-4.29Zm4.29,6.57h1.78c1.23,0,2.1-.51,2.1-1.75s-.88-1.76-2.09-1.76h-1.79Z"/><path class="cls-6" d="M129.19,133.67H137V136H132.2v2h4.52v2.29H132.2v3.88h-3Z"/><path class="cls-6" d="M141.64,133.67v10.48h-3.07V133.67Z"/><path class="cls-6" d="M143.82,144.15V133.67h3.67c1.1,2.36,2.7,5.55,3.14,6.84h.05c-.12-1.09-.14-2.94-.14-4.61v-2.23h2.8v10.48h-3.5c-.89-1.9-2.79-5.83-3.28-7.21h0c.1,1,.11,3,.11,4.86v2.35Z"/><path class="cls-6" d="M158.15,142.11l-.6,2h-3l3.31-10.48h4l3.44,10.48h-3.2l-.64-2Zm2.75-2.28c-.49-1.64-.89-3.1-1.13-4.13h0c-.24,1.13-.65,2.63-1.07,4.13Z"/><path class="cls-6" d="M166.39,144.15V133.67h3.67c1.1,2.36,2.7,5.55,3.14,6.84h.05c-.12-1.09-.14-2.94-.14-4.61v-2.23h2.8v10.48h-3.5c-.89-1.9-2.79-5.83-3.28-7.21h0c.1,1,.11,3,.11,4.86v2.35Z"/><path class="cls-6" d="M187.56,140.7c-.38,2.19-2,3.64-4.86,3.64-3.44,0-5.09-2.31-5.09-5.35s1.63-5.51,5.23-5.51c3.08,0,4.48,1.79,4.69,3.6h-3.05a1.59,1.59,0,0,0-1.71-1.45c-1.49,0-2,1.42-2,3.25,0,1.66.43,3.3,2,3.3a1.64,1.64,0,0,0,1.69-1.48Z"/><path class="cls-6" d="M196.76,139.91H192v2h5.33l-.35,2.28H189V133.67H197V136h-5v1.68h4.77Z"/></svg>